<svg width="12" height="12" viewBox="0 0 12 12" fill="none" xmlns="http://www.w3.org/2000/svg">
<path d="M5.99996 5.00269C6.2761 5.00269 6.49996 5.22654 6.49996 5.50269V8.83602C6.49996 9.11216 6.2761 9.33602 5.99996 9.33602C5.72382 9.33602 5.49996 9.11216 5.49996 8.83602V5.50269C5.49996 5.22654 5.72382 5.00269 5.99996 5.00269Z" fill="#5F6369"/>
<path d="M5.99996 3.83602C6.36815 3.83602 6.66663 3.53754 6.66663 3.16935C6.66663 2.80116 6.36815 2.50269 5.99996 2.50269C5.63177 2.50269 5.33329 2.80116 5.33329 3.16935C5.33329 3.53754 5.63177 3.83602 5.99996 3.83602Z" fill="#5F6369"/>
<path fill-rule="evenodd" clip-rule="evenodd" d="M0.166626 5.83602C0.166626 2.61436 2.7783 0.00268555 5.99996 0.00268555C9.22162 0.00268555 11.8333 2.61436 11.8333 5.83602C11.8333 9.05768 9.22162 11.6694 5.99996 11.6694C2.7783 11.6694 0.166626 9.05768 0.166626 5.83602ZM5.99996 1.00269C3.33058 1.00269 1.16663 3.16664 1.16663 5.83602C1.16663 8.50539 3.33058 10.6694 5.99996 10.6694C8.66934 10.6694 10.8333 8.50539 10.8333 5.83602C10.8333 3.16664 8.66934 1.00269 5.99996 1.00269Z" fill="#5F6369"/>
</svg>
