<svg width="118" height="38" viewBox="0 0 118 38" fill="none" xmlns="http://www.w3.org/2000/svg">
<g clip-path="url(#clip0_86_1378)">
<path d="M6.54709 37.6143L6.55182 37.6144C6.85099 37.6212 7.14451 37.625 7.44488 37.625L109.134 37.627H109.135L110.218 37.625H110.219C110.512 37.625 110.815 37.6212 111.105 37.6144L111.11 37.6143C111.711 37.607 112.31 37.5548 112.903 37.458C113.434 37.3679 113.947 37.1986 114.427 36.9557L6.54709 37.6143ZM6.54709 37.6143C5.9463 37.6065 5.34691 37.5543 4.75382 37.458M6.54709 37.6143L4.75382 37.458M4.75382 37.458C4.22733 37.3671 3.7173 37.1983 3.24051 36.9572C2.77118 36.7196 2.34312 36.4081 1.97272 36.0346L1.97275 36.0346L1.96808 36.03C1.59293 35.6615 1.2806 35.2341 1.04347 34.7647L1.04306 34.7639C0.801569 34.2881 0.634445 33.778 0.547506 33.2515L0.54744 33.2511C0.448708 32.6562 0.39529 32.0547 0.387647 31.4517H0.387722L0.387461 31.443C0.384436 31.3424 0.380826 31.1185 0.377939 30.9153L0.374403 30.6516L0.373379 30.5694L0.373106 30.5468L0.373047 30.5419V7.44756L0.373106 7.443L0.373395 7.42079L0.374474 7.3399L0.378143 7.08066C0.381103 6.88117 0.384727 6.6615 0.38753 6.56419L0.387599 6.5642L0.3877 6.55588C0.395018 5.95392 0.448117 5.35338 0.54654 4.75948L0.546598 4.75912C0.633746 4.2309 0.801093 3.71909 1.04285 3.24141L1.04328 3.24056C1.27978 2.77105 1.59069 2.34289 1.96396 1.97269L1.96396 1.9727L1.96583 1.97082C2.33967 1.59611 2.76993 1.28231 3.24095 1.04084C3.7162 0.800872 4.22476 0.633555 4.74966 0.54448C5.34475 0.447226 5.94629 0.394642 6.54923 0.387172L6.5498 0.387164L7.44874 0.375H110.21H110.214L111.12 0.387653L111.121 0.387665C111.718 0.39476 112.314 0.446846 112.903 0.543481C113.434 0.633767 113.948 0.802361 114.429 1.04374C115.373 1.53052 116.141 2.29989 116.625 3.24432C116.863 3.71814 117.027 4.22511 117.113 4.74806L117.113 4.74903C117.213 5.34809 117.269 5.95363 117.28 6.5608C117.283 6.84056 117.283 7.14157 117.283 7.44434L117.283 7.45487C117.291 7.82379 117.291 8.17557 117.291 8.53613V29.4648C117.291 29.829 117.291 30.178 117.283 30.529L117.283 30.5289V30.54C117.283 30.8655 117.283 31.1601 117.279 31.4627C117.268 32.0587 117.213 32.653 117.115 33.241L117.115 33.2439C117.03 33.7738 116.864 34.2874 116.623 34.7669C116.383 35.2316 116.072 35.6558 115.701 36.0237L115.697 36.0276C115.326 36.403 114.898 36.7163 114.428 36.9553L4.75382 37.458Z" fill="white" stroke="black"/>
<path d="M41.3018 26.1397H36.5684L35.4316 29.4961H33.4268L37.9102 17.0781H39.9932L44.4766 29.4961H42.4375L41.3018 26.1397ZM37.0586 24.5908H40.8106L38.961 19.1436H38.9092L37.0586 24.5908Z" fill="black"/>
<path d="M54.1592 24.9697C54.1592 27.7832 52.6533 29.5908 50.3809 29.5908C49.8052 29.6209 49.2327 29.4883 48.7289 29.2082C48.2251 28.928 47.8104 28.5117 47.5323 28.0068H47.4893V32.4912H45.6309V20.4423H47.4297V21.9482H47.4639C47.7548 21.4457 48.1766 21.0316 48.6842 20.7497C49.1918 20.4679 49.7664 20.3289 50.3467 20.3476C52.6446 20.3476 54.1592 22.164 54.1592 24.9697ZM52.249 24.9697C52.249 23.1367 51.3018 21.9316 49.8565 21.9316C48.4365 21.9316 47.4815 23.1621 47.4815 24.9697C47.4815 26.7939 48.4365 28.0156 49.8565 28.0156C51.3018 28.0156 52.249 26.8193 52.249 24.9697H52.249Z" fill="black"/>
<path d="M64.1245 24.9697C64.1245 27.7832 62.6182 29.5908 60.3457 29.5908C59.7701 29.6209 59.1976 29.4883 58.6938 29.2082C58.19 28.928 57.7753 28.5117 57.4971 28.0068H57.4541V32.4912H55.5957V20.4423H57.3945V21.9482H57.4287C57.7197 21.4457 58.1414 21.0316 58.649 20.7497C59.1567 20.4679 59.7312 20.3289 60.3115 20.3476C62.6094 20.3476 64.1245 22.164 64.1245 24.9697ZM62.2139 24.9697C62.2139 23.1367 61.2666 21.9316 59.8213 21.9316C58.4014 21.9316 57.4463 23.1621 57.4463 24.9697C57.4463 26.7939 58.4014 28.0156 59.8213 28.0156C61.2666 28.0156 62.2139 26.8193 62.2139 24.9697V24.9697Z" fill="black"/>
<path d="M70.7095 26.0362C70.8472 27.2676 72.0435 28.0762 73.6783 28.0762C75.2447 28.0762 76.3716 27.2676 76.3716 26.1572C76.3716 25.1934 75.6919 24.6162 74.0826 24.2207L72.4732 23.833C70.1929 23.2822 69.1343 22.2158 69.1343 20.4854C69.1343 18.3428 71.0015 16.8711 73.6519 16.8711C76.2769 16.8711 78.0757 18.3428 78.1363 20.4854H76.2603C76.148 19.2461 75.1236 18.4981 73.6265 18.4981C72.1294 18.4981 71.105 19.2549 71.105 20.3565C71.105 21.2344 71.7593 21.751 73.3599 22.1465L74.7281 22.4824C77.2759 23.0849 78.3335 24.1084 78.3335 25.9248C78.3335 28.248 76.4839 29.7031 73.5405 29.7031C70.7866 29.7031 68.9272 28.2822 68.8071 26.0361L70.7095 26.0362Z" fill="black"/>
<path d="M82.3462 18.2998V20.4424H84.0679V21.9141H82.3462V26.9053C82.3462 27.6807 82.6909 28.042 83.4477 28.042C83.6521 28.0384 83.8562 28.0241 84.0591 27.999V29.4619C83.7188 29.5255 83.3729 29.5543 83.0268 29.5478C81.1938 29.5478 80.479 28.8593 80.479 27.1035V21.9141H79.1626V20.4424H80.479V18.2998H82.3462Z" fill="black"/>
<path d="M85.064 24.9697C85.064 22.1211 86.7417 20.3311 89.3579 20.3311C91.9829 20.3311 93.6528 22.1211 93.6528 24.9697C93.6528 27.8262 91.9917 29.6084 89.3579 29.6084C86.7251 29.6084 85.064 27.8262 85.064 24.9697ZM91.7593 24.9697C91.7593 23.0156 90.8638 21.8623 89.3579 21.8623C87.852 21.8623 86.9565 23.0244 86.9565 24.9697C86.9565 26.9316 87.852 28.0762 89.3579 28.0762C90.8638 28.0762 91.7593 26.9316 91.7593 24.9697H91.7593Z" fill="black"/>
<path d="M95.1851 20.4425H96.9575V21.9835H97.0005C97.1205 21.5022 97.4024 21.0769 97.799 20.779C98.1956 20.4811 98.6826 20.3288 99.1783 20.3478C99.3924 20.347 99.606 20.3703 99.815 20.4171V22.1554C99.5446 22.0728 99.2626 22.0348 98.98 22.0431C98.71 22.0321 98.4409 22.0797 98.191 22.1826C97.9412 22.2855 97.7166 22.4412 97.5326 22.6391C97.3486 22.837 97.2096 23.0724 97.1252 23.3291C97.0408 23.5857 97.0129 23.8576 97.0435 24.1261V29.4962H95.1851L95.1851 20.4425Z" fill="black"/>
<path d="M108.383 26.8369C108.133 28.4805 106.533 29.6084 104.485 29.6084C101.851 29.6084 100.216 27.8437 100.216 25.0127C100.216 22.1729 101.86 20.3311 104.407 20.3311C106.912 20.3311 108.487 22.0518 108.487 24.7969V25.4336H102.092V25.5459C102.063 25.8791 102.104 26.2148 102.215 26.5306C102.325 26.8464 102.501 27.1352 102.731 27.3778C102.962 27.6203 103.241 27.8111 103.551 27.9374C103.86 28.0637 104.194 28.1226 104.528 28.1103C104.967 28.1515 105.408 28.0498 105.784 27.8203C106.161 27.5909 106.454 27.246 106.619 26.8369L108.383 26.8369ZM102.101 24.1348H106.627C106.644 23.8352 106.599 23.5354 106.494 23.2541C106.389 22.9729 106.228 22.7164 106.019 22.5006C105.811 22.2849 105.56 22.1145 105.282 22.0003C105.005 21.8861 104.707 21.8305 104.407 21.8369C104.104 21.8351 103.804 21.8933 103.524 22.008C103.244 22.1227 102.989 22.2918 102.775 22.5054C102.561 22.7191 102.391 22.973 102.275 23.2527C102.159 23.5323 102.1 23.8321 102.101 24.1348V24.1348Z" fill="black"/>
<path d="M36.8262 7.73089C37.2158 7.70293 37.6067 7.76179 37.9709 7.90323C38.335 8.04466 38.6632 8.26514 38.9317 8.54876C39.2003 8.83239 39.4026 9.17209 39.524 9.54336C39.6454 9.91463 39.6829 10.3082 39.6338 10.6957C39.6338 12.602 38.6035 13.6977 36.8262 13.6977H34.6709V7.73089H36.8262ZM35.5976 12.8539H36.7226C37.0011 12.8705 37.2797 12.8249 37.5382 12.7203C37.7967 12.6157 38.0287 12.4547 38.2172 12.2491C38.4057 12.0436 38.546 11.7986 38.6278 11.532C38.7097 11.2653 38.7311 10.9838 38.6904 10.7079C38.7281 10.4331 38.7046 10.1533 38.6215 9.88862C38.5383 9.62396 38.3977 9.38096 38.2096 9.17703C38.0216 8.9731 37.7907 8.81329 37.5337 8.70905C37.2766 8.60481 36.9996 8.55873 36.7226 8.5741H35.5976V12.8539Z" fill="black"/>
<path d="M40.6807 11.4443C40.6524 11.1484 40.6862 10.8498 40.7801 10.5677C40.8739 10.2857 41.0257 10.0263 41.2256 9.80634C41.4256 9.58636 41.6693 9.41059 41.9411 9.29032C42.213 9.17004 42.507 9.10791 42.8042 9.10791C43.1015 9.10791 43.3955 9.17004 43.6673 9.29032C43.9392 9.41059 44.1829 9.58636 44.3828 9.80634C44.5828 10.0263 44.7345 10.2857 44.8284 10.5677C44.9222 10.8498 44.9561 11.1484 44.9278 11.4443C44.9566 11.7405 44.9232 12.0395 44.8296 12.322C44.736 12.6045 44.5843 12.8644 44.3843 13.0848C44.1843 13.3052 43.9404 13.4813 43.6683 13.6019C43.3962 13.7224 43.1019 13.7847 42.8042 13.7847C42.5066 13.7847 42.2123 13.7224 41.9402 13.6019C41.668 13.4813 41.4241 13.3052 41.2241 13.0848C41.0242 12.8644 40.8725 12.6045 40.7789 12.322C40.6853 12.0395 40.6519 11.7405 40.6807 11.4443V11.4443ZM44.0137 11.4443C44.0137 10.4682 43.5752 9.89742 42.8057 9.89742C42.0332 9.89742 41.5987 10.4682 41.5987 11.4443C41.5987 12.4282 42.0333 12.9946 42.8057 12.9946C43.5752 12.9946 44.0137 12.4243 44.0137 11.4443H44.0137Z" fill="black"/>
<path d="M50.5732 13.6978H49.6514L48.7207 10.3813H48.6504L47.7236 13.6978H46.8105L45.5693 9.19482H46.4707L47.2773 12.6308H47.3438L48.2695 9.19482H49.1221L50.0479 12.6308H50.1182L50.9209 9.19482H51.8096L50.5732 13.6978Z" fill="black"/>
<path d="M52.8535 9.19487H53.709V9.9102H53.7754C53.888 9.65328 54.0781 9.43791 54.3189 9.2941C54.5598 9.15029 54.8395 9.08522 55.1191 9.10795C55.3382 9.09148 55.5582 9.12451 55.7628 9.20461C55.9674 9.2847 56.1514 9.40981 56.3011 9.57065C56.4508 9.73149 56.5623 9.92396 56.6275 10.1338C56.6927 10.3436 56.7099 10.5654 56.6777 10.7827V13.6977H55.7891V11.0059C55.7891 10.2823 55.4746 9.92241 54.8174 9.92241C54.6686 9.91548 54.5201 9.9408 54.3821 9.99663C54.244 10.0525 54.1197 10.1375 54.0175 10.2459C53.9154 10.3543 53.8379 10.4834 53.7904 10.6246C53.7429 10.7657 53.7264 10.9154 53.7422 11.0635V13.6978H52.8535L52.8535 9.19487Z" fill="black"/>
<path d="M58.0938 7.43701H58.9824V13.6978H58.0938V7.43701Z" fill="black"/>
<path d="M60.2178 11.4444C60.1895 11.1484 60.2234 10.8499 60.3172 10.5678C60.4111 10.2857 60.5629 10.0263 60.7628 9.80635C60.9628 9.58636 61.2065 9.4106 61.4784 9.29032C61.7503 9.17004 62.0443 9.10791 62.3416 9.10791C62.6389 9.10791 62.9329 9.17004 63.2047 9.29032C63.4766 9.4106 63.7203 9.58636 63.9203 9.80635C64.1203 10.0263 64.272 10.2857 64.3659 10.5678C64.4598 10.8499 64.4936 11.1484 64.4653 11.4444C64.4942 11.7406 64.4607 12.0396 64.3671 12.3221C64.2734 12.6046 64.1217 12.8645 63.9217 13.0849C63.7217 13.3053 63.4778 13.4814 63.2057 13.6019C62.9335 13.7225 62.6392 13.7847 62.3416 13.7847C62.0439 13.7847 61.7496 13.7225 61.4775 13.6019C61.2053 13.4814 60.9614 13.3053 60.7614 13.0849C60.5614 12.8645 60.4097 12.6046 60.3161 12.3221C60.2225 12.0396 60.189 11.7406 60.2178 11.4444V11.4444ZM63.5508 11.4444C63.5508 10.4683 63.1123 9.8975 62.3428 9.8975C61.5703 9.8975 61.1358 10.4683 61.1358 11.4444C61.1358 12.4283 61.5704 12.9947 62.3428 12.9947C63.1123 12.9947 63.5508 12.4244 63.5508 11.4444H63.5508Z" fill="black"/>
<path d="M65.4009 12.4243C65.4009 11.6138 66.0044 11.1465 67.0757 11.0801L68.2954 11.0098V10.6211C68.2954 10.1455 67.981 9.87695 67.3735 9.87695C66.8774 9.87695 66.5337 10.0591 66.4351 10.3774H65.5747C65.6655 9.604 66.3931 9.10791 67.4146 9.10791C68.5435 9.10791 69.1802 9.66991 69.1802 10.6211V13.6978H68.3247V13.0649H68.2544C68.1117 13.2919 67.9113 13.477 67.6737 13.6012C67.436 13.7254 67.1697 13.7843 66.9019 13.7719C66.7128 13.7916 66.5218 13.7714 66.341 13.7127C66.1602 13.654 65.9938 13.5581 65.8524 13.4311C65.711 13.3042 65.5977 13.149 65.52 12.9756C65.4422 12.8021 65.4016 12.6144 65.4009 12.4243V12.4243ZM68.2954 12.0395V11.6631L67.1958 11.7334C66.5757 11.7749 66.2944 11.9858 66.2944 12.3828C66.2944 12.7881 66.646 13.0239 67.1294 13.0239C67.2711 13.0382 67.4142 13.0239 67.5502 12.9819C67.6862 12.9398 67.8123 12.8707 67.9211 12.7789C68.0299 12.6871 68.1191 12.5743 68.1834 12.4473C68.2477 12.3202 68.2858 12.1816 68.2954 12.0395V12.0395Z" fill="black"/>
<path d="M70.3481 11.4444C70.3481 10.0215 71.0796 9.12013 72.2173 9.12013C72.4987 9.10716 72.778 9.17457 73.0225 9.31446C73.267 9.45436 73.4667 9.66096 73.5981 9.91013H73.6646V7.43701H74.5532V13.6978H73.7017V12.9863H73.6314C73.4897 13.2338 73.2831 13.4378 73.0339 13.5763C72.7846 13.7148 72.5022 13.7825 72.2173 13.772C71.0718 13.772 70.3481 12.8706 70.3481 11.4444ZM71.2661 11.4444C71.2661 12.3994 71.7163 12.9741 72.4693 12.9741C73.2183 12.9741 73.6812 12.3911 73.6812 11.4483C73.6812 10.5098 73.2134 9.91847 72.4693 9.91847C71.7212 9.91847 71.2661 10.4971 71.2661 11.4444H71.2661Z" fill="black"/>
<path d="M78.23 11.4443C78.2017 11.1484 78.2356 10.8498 78.3294 10.5677C78.4232 10.2857 78.575 10.0263 78.7749 9.80634C78.9749 9.58636 79.2186 9.41059 79.4904 9.29032C79.7623 9.17004 80.0563 9.10791 80.3536 9.10791C80.6508 9.10791 80.9448 9.17004 81.2167 9.29032C81.4885 9.41059 81.7322 9.58636 81.9322 9.80634C82.1321 10.0263 82.2839 10.2857 82.3777 10.5677C82.4715 10.8498 82.5054 11.1484 82.4771 11.4443C82.5059 11.7405 82.4725 12.0395 82.3789 12.322C82.2853 12.6045 82.1336 12.8644 81.9336 13.0848C81.7336 13.3052 81.4897 13.4813 81.2176 13.6019C80.9455 13.7224 80.6512 13.7847 80.3536 13.7847C80.0559 13.7847 79.7616 13.7224 79.4895 13.6019C79.2173 13.4813 78.9735 13.3052 78.7735 13.0848C78.5735 12.8644 78.4218 12.6045 78.3282 12.322C78.2346 12.0395 78.2012 11.7405 78.23 11.4443V11.4443ZM81.563 11.4443C81.563 10.4682 81.1245 9.89742 80.355 9.89742C79.5826 9.89742 79.148 10.4682 79.148 11.4443C79.148 12.4282 79.5826 12.9946 80.355 12.9946C81.1245 12.9946 81.563 12.4243 81.563 11.4443Z" fill="black"/>
<path d="M83.6694 9.19487H84.5249V9.9102H84.5913C84.704 9.65328 84.894 9.43791 85.1348 9.2941C85.3757 9.15029 85.6555 9.08522 85.9351 9.10795C86.1542 9.09148 86.3742 9.12451 86.5788 9.20461C86.7834 9.2847 86.9673 9.40981 87.117 9.57065C87.2667 9.73149 87.3783 9.92396 87.4435 10.1338C87.5087 10.3436 87.5258 10.5654 87.4937 10.7827V13.6977H86.605V11.0059C86.605 10.2823 86.2905 9.92241 85.6333 9.92241C85.4846 9.91548 85.336 9.9408 85.198 9.99663C85.0599 10.0525 84.9356 10.1375 84.8335 10.2459C84.7313 10.3543 84.6539 10.4834 84.6063 10.6246C84.5588 10.7657 84.5423 10.9154 84.5581 11.0635V13.6978H83.6694V9.19487Z" fill="black"/>
<path d="M92.5151 8.07373V9.21533H93.4907V9.96387H92.5151V12.2793C92.5151 12.751 92.7095 12.9575 93.1519 12.9575C93.2651 12.9572 93.3783 12.9503 93.4907 12.937V13.6772C93.3311 13.7058 93.1694 13.721 93.0073 13.7226C92.019 13.7226 91.6255 13.375 91.6255 12.5068V9.96383H90.9106V9.21529H91.6255V8.07373H92.5151Z" fill="black"/>
<path d="M94.7046 7.43701H95.5854V9.91846H95.6558C95.7739 9.65914 95.9691 9.44255 96.2148 9.2982C96.4605 9.15386 96.7447 9.08877 97.0288 9.11182C97.2467 9.09996 97.4646 9.13635 97.6669 9.21839C97.8692 9.30043 98.0508 9.42611 98.199 9.58644C98.3471 9.74678 98.458 9.93783 98.5238 10.146C98.5896 10.3541 98.6086 10.5742 98.5795 10.7905V13.6978H97.69V11.0098C97.69 10.2905 97.355 9.92626 96.7271 9.92626C96.5743 9.91374 96.4207 9.93473 96.2769 9.98779C96.1332 10.0408 96.0027 10.1247 95.8947 10.2334C95.7867 10.3421 95.7038 10.4732 95.6517 10.6173C95.5997 10.7614 95.5797 10.9152 95.5933 11.0679V13.6977H94.7046L94.7046 7.43701Z" fill="black"/>
<path d="M103.761 12.482C103.641 12.8935 103.379 13.2495 103.022 13.4877C102.666 13.7258 102.236 13.831 101.81 13.7847C101.513 13.7926 101.219 13.7357 100.946 13.6182C100.674 13.5007 100.43 13.3253 100.232 13.1041C100.034 12.883 99.8867 12.6214 99.8 12.3376C99.7133 12.0538 99.6894 11.7545 99.73 11.4605C99.6905 11.1656 99.7148 10.8657 99.8013 10.581C99.8878 10.2964 100.034 10.0336 100.231 9.81052C100.428 9.58745 100.671 9.40928 100.942 9.28807C101.214 9.16686 101.509 9.10545 101.806 9.10799C103.059 9.10799 103.815 9.96399 103.815 11.378V11.6881H100.635V11.7379C100.621 11.9031 100.642 12.0695 100.696 12.2262C100.75 12.383 100.837 12.5267 100.95 12.6481C101.062 12.7696 101.2 12.8661 101.352 12.9315C101.504 12.9969 101.669 13.0297 101.835 13.0279C102.047 13.0534 102.262 13.0151 102.453 12.9179C102.644 12.8207 102.802 12.669 102.906 12.482L103.761 12.482ZM100.635 11.0308H102.91C102.921 10.8797 102.9 10.7279 102.849 10.5852C102.798 10.4425 102.718 10.312 102.614 10.2021C102.509 10.0923 102.383 10.0055 102.243 9.9473C102.103 9.88912 101.953 9.86086 101.801 9.86434C101.648 9.8624 101.495 9.89126 101.353 9.94921C101.21 10.0072 101.081 10.093 100.972 10.2017C100.864 10.3104 100.778 10.4398 100.72 10.5822C100.662 10.7246 100.633 10.8771 100.635 11.0308H100.635Z" fill="black"/>
<path d="M23.9965 18.8894C24.0077 18.0215 24.2383 17.1705 24.6667 16.4155C25.0952 15.6606 25.7077 15.0264 26.4471 14.5717C25.9774 13.9008 25.3576 13.3487 24.6372 12.9592C23.9167 12.5697 23.1153 12.3536 22.2967 12.328C20.5505 12.1447 18.8576 13.3729 17.9677 13.3729C17.0607 13.3729 15.6906 12.3462 14.2153 12.3765C13.261 12.4074 12.331 12.6849 11.5158 13.182C10.7007 13.6791 10.0282 14.3789 9.56389 15.2132C7.55278 18.6952 9.05289 23.8126 10.9794 26.6272C11.9433 28.0055 13.0698 29.545 14.5438 29.4904C15.9862 29.4305 16.5249 28.5706 18.266 28.5706C19.9909 28.5706 20.4963 29.4904 22.0003 29.4557C23.548 29.4305 24.5232 28.0713 25.4533 26.68C26.1458 25.698 26.6787 24.6126 27.0323 23.4641C26.133 23.0838 25.3657 22.4472 24.8258 21.6337C24.286 20.8202 23.9976 19.8658 23.9965 18.8894Z" fill="black"/>
<path d="M21.156 10.4768C21.9999 9.46374 22.4156 8.1616 22.315 6.84692C21.0257 6.98234 19.8347 7.59854 18.9794 8.57274C18.5612 9.04867 18.241 9.60235 18.0369 10.2021C17.8328 10.8019 17.7489 11.436 17.7901 12.0682C18.435 12.0749 19.0729 11.9351 19.656 11.6594C20.239 11.3838 20.7519 10.9794 21.156 10.4768V10.4768Z" fill="black"/>
</g>
<defs>
<clipPath id="clip0_86_1378">
<rect width="118" height="38" fill="white"/>
</clipPath>
</defs>
</svg>
