<svg width="132" height="38" viewBox="0 0 132 38" fill="none" xmlns="http://www.w3.org/2000/svg">
<g clip-path="url(#clip0_86_1412)">
<path d="M1.9522 36.0705L1.95223 36.0704L1.94741 36.0657C1.5783 35.7033 1.27427 35.287 1.03567 34.8176L1.03469 34.8157C0.803857 34.3662 0.643751 33.88 0.546516 33.3222L0.545894 33.3188C0.432476 32.694 0.402154 32.0515 0.389519 31.545L0.389431 31.5421C0.386384 31.4429 0.382768 31.2222 0.379882 31.0215L0.376351 30.7612L0.37533 30.6801L0.375058 30.6579L0.375 30.6531V7.34121L0.375058 7.33678L0.375346 7.31487L0.37642 7.23504L0.380077 6.97919C0.38303 6.78226 0.386647 6.56557 0.389453 6.46965L0.389458 6.46965L0.389514 6.4674C0.402163 5.95615 0.432506 5.31435 0.544808 4.69644L0.544821 4.69644L0.545441 4.69289C0.64322 4.13189 0.80337 3.64568 1.03451 3.19401L1.03451 3.19401L1.03546 3.19214C1.27379 2.72153 1.57873 2.30228 1.9432 1.94166L1.94321 1.94167L1.9452 1.93967C2.31643 1.5682 2.73832 1.26082 3.20307 1.02226C3.66325 0.788784 4.15018 0.628163 4.69433 0.53256L4.69608 0.532245C5.32037 0.420265 5.96165 0.391117 6.46882 0.378146L7.35337 0.365967H124.002H124.005L124.894 0.378614C124.895 0.378635 124.896 0.378657 124.897 0.378679C125.398 0.391119 126.038 0.420273 126.652 0.531093L126.655 0.53152C127.203 0.627593 127.694 0.789252 128.164 1.02607C128.623 1.26116 129.044 1.56814 129.41 1.93559L129.412 1.93746C129.777 2.29949 130.084 2.72139 130.329 3.19547C130.559 3.65297 130.718 4.13895 130.81 4.68035L130.811 4.68692C130.918 5.26917 130.953 5.87568 130.975 6.47009C130.977 6.74503 130.977 7.04068 130.977 7.33797L130.977 7.34879C130.985 7.71267 130.985 8.05966 130.985 8.41557V29.5897C130.985 29.9496 130.985 30.2935 130.977 30.64L130.977 30.64V30.6513C130.977 30.971 130.977 31.2602 130.974 31.5575C130.953 32.133 130.918 32.7389 130.813 33.3074L130.812 33.3153C130.717 33.8737 130.559 34.3594 130.327 34.8189C130.084 35.2867 129.777 35.7064 129.418 36.0583L129.413 36.0637C129.044 36.4375 128.625 36.7422 128.161 36.9785C127.696 37.2151 127.221 37.3727 126.653 37.4746L126.652 37.4748C126.06 37.5825 125.438 37.6126 124.884 37.6283C124.598 37.6346 124.299 37.6385 124.01 37.6385H124.009L122.94 37.6406H122.939L7.34941 37.6385C7.05367 37.6385 6.76435 37.6346 6.46914 37.6283C5.9218 37.6126 5.29919 37.5825 4.70009 37.4747C4.14185 37.3738 3.6538 37.2112 3.20367 36.981L3.20244 36.9804C2.73519 36.7432 2.31602 36.4374 1.9522 36.0705Z" fill="white" stroke="black"/>
<path d="M44.3959 24.4149H47.8917L46.6402 21.0647C46.4679 20.6021 46.2986 20.0909 46.1317 19.5309C45.981 20.0261 45.8167 20.5319 45.6391 21.0485L44.3959 24.4149ZM48.489 26.0053H43.8066L42.6605 29.1375H40.6018L45.1871 17.4399H47.1327L51.8231 29.1375H49.6597L48.489 26.0053Z" fill="#030404"/>
<path d="M57.9053 27.0014C58.3117 26.4553 58.5149 25.6574 58.5149 24.6078C58.5149 23.6339 58.3466 22.9273 58.0103 22.4886C57.6738 22.0499 57.2258 21.8307 56.6661 21.8307C56.2786 21.8307 55.9207 21.9225 55.5925 22.1051C55.2642 22.2883 54.9519 22.5331 54.6559 22.8398V27.5059C54.8551 27.6027 55.0866 27.6795 55.3503 27.7358C55.6141 27.7926 55.8751 27.8209 56.1333 27.8209C56.9085 27.8209 57.4989 27.5475 57.9053 27.0014ZM52.6621 22.5494C52.6621 21.9035 52.6405 21.1931 52.5975 20.4179H54.4703C54.5402 20.7787 54.5887 21.1475 54.6157 21.5241C55.3906 20.6793 56.2786 20.2566 57.2797 20.2566C57.861 20.2566 58.3991 20.4033 58.8943 20.6963C59.3893 20.9899 59.789 21.4526 60.093 22.0849C60.3973 22.7174 60.5493 23.5209 60.5493 24.4947C60.5493 25.5121 60.3757 26.3811 60.0285 27.1022C59.6813 27.8235 59.1957 28.3697 58.5714 28.7411C57.9471 29.1123 57.2258 29.2982 56.4079 29.2982C55.8157 29.2982 55.2317 29.1985 54.6559 28.9995V32.5998L52.6621 32.7694V22.5494Z" fill="#030404"/>
<path d="M66.9843 27.0014C67.3907 26.4553 67.5939 25.6574 67.5939 24.6078C67.5939 23.6339 67.4256 22.9273 67.0893 22.4886C66.7528 22.0499 66.3048 21.8307 65.7451 21.8307C65.3576 21.8307 64.9997 21.9225 64.6715 22.1051C64.3429 22.2883 64.0309 22.5331 63.7349 22.8398V27.5059C63.9341 27.6027 64.1653 27.6795 64.4293 27.7358C64.6928 27.7926 64.9539 27.8209 65.2123 27.8209C65.9872 27.8209 66.5779 27.5475 66.9843 27.0014ZM61.7408 22.5494C61.7408 21.9035 61.7192 21.1931 61.6763 20.4179H63.5493C63.6192 20.7787 63.6677 21.1475 63.6947 21.5241C64.4696 20.6793 65.3576 20.2566 66.3587 20.2566C66.94 20.2566 67.4779 20.4033 67.9733 20.6963C68.468 20.9899 68.868 21.4526 69.1723 22.0849C69.476 22.7174 69.6283 23.5209 69.6283 24.4947C69.6283 25.5121 69.4544 26.3811 69.1075 27.1022C68.76 27.8235 68.2744 28.3697 67.6504 28.7411C67.0259 29.1123 66.3048 29.2982 65.4867 29.2982C64.8947 29.2982 64.3107 29.1985 63.7349 28.9995V32.5998L61.7408 32.7694V22.5494Z" fill="#030404"/>
<path d="M73.2894 28.583C72.4281 28.107 71.7662 27.4246 71.3035 26.5366C70.8403 25.6486 70.6091 24.5993 70.6091 23.3884C70.6091 22.0753 70.8755 20.9596 71.4083 20.042C71.9411 19.1244 72.6665 18.4356 73.5838 17.9753C74.5017 17.5153 75.5307 17.2852 76.6721 17.2852C77.3446 17.2852 77.9865 17.3593 78.5974 17.507C79.2081 17.6553 79.7771 17.8582 80.3049 18.1166L79.7961 19.6505C78.7358 19.1446 77.7241 18.8916 76.7609 18.8916C75.9481 18.8916 75.2363 19.0652 74.6257 19.4124C74.0147 19.7596 73.5395 20.2694 73.2006 20.9422C72.8614 21.615 72.6921 22.4276 72.6921 23.3801C72.6921 24.2145 72.8225 24.9545 73.0833 25.6004C73.3446 26.246 73.7563 26.7574 74.3187 27.134C74.8811 27.5108 75.5902 27.699 76.4459 27.699C76.8334 27.699 77.2209 27.6668 77.6083 27.6022C77.9958 27.5377 78.3593 27.4436 78.6982 27.3196V24.9545H75.9939V23.4044H80.6358V28.3289C79.9683 28.6409 79.2673 28.8806 78.5329 29.0473C77.7979 29.214 77.0675 29.2974 76.3409 29.2974C75.1675 29.2974 74.1502 29.0596 73.2894 28.583Z" fill="#030404"/>
<path d="M86.5426 27.5139C86.9567 27.315 87.2959 27.0673 87.5596 26.7713V25.1569C87.0159 25.0977 86.5719 25.0681 86.2276 25.0681C85.4042 25.0681 84.8348 25.2011 84.5204 25.4678C84.2052 25.7337 84.0479 26.0931 84.0479 26.5451C84.0479 26.9761 84.1623 27.2947 84.3911 27.5019C84.6199 27.7091 84.9306 27.8126 85.3234 27.8126C85.7215 27.8126 86.1279 27.7131 86.5426 27.5139ZM87.7372 29.1286C87.6671 28.7894 87.6212 28.4049 87.5999 27.9742C87.2932 28.3403 86.8938 28.651 86.401 28.9067C85.909 29.1622 85.353 29.2899 84.734 29.2899C84.2335 29.2899 83.7775 29.1918 83.3655 28.9953C82.9543 28.799 82.6271 28.503 82.385 28.1073C82.1428 27.7118 82.0215 27.2289 82.0215 26.6582C82.0215 25.8134 82.3255 25.1393 82.9337 24.6361C83.542 24.1329 84.5564 23.8814 85.9772 23.8814C86.51 23.8814 87.0375 23.919 87.5596 23.9942V23.8249C87.5596 23.0553 87.3953 22.5131 87.0671 22.1979C86.7388 21.8833 86.2679 21.7259 85.6546 21.7259C85.2292 21.7259 84.7746 21.7878 84.29 21.9115C83.8058 22.0355 83.3804 22.1833 83.0146 22.3555L82.6996 20.9025C83.0548 20.7409 83.5231 20.5931 84.1044 20.4585C84.6858 20.3241 85.2991 20.2566 85.945 20.2566C86.6986 20.2566 87.3388 20.371 87.8663 20.5995C88.3938 20.8283 88.8055 21.2214 89.1015 21.7782C89.3975 22.3355 89.5455 23.0849 89.5455 24.0267V27.4897C89.5455 27.8505 89.5668 28.3969 89.61 29.1286H87.7372Z" fill="#030404"/>
<path d="M91.0638 27.0467V16.7539L93.0497 16.5923V26.6915C93.0497 27.063 93.1129 27.3251 93.2393 27.4787C93.3657 27.6318 93.5662 27.7088 93.8409 27.7088C93.9646 27.7088 94.1396 27.6792 94.3655 27.62L94.5996 29.0488C94.4111 29.1243 94.1812 29.1848 93.9097 29.2304C93.6377 29.276 93.3806 29.299 93.1385 29.299C91.755 29.299 91.0638 28.5483 91.0638 27.0467Z" fill="#030404"/>
<path d="M96.0225 27.0467V16.7539L98.0083 16.5923V26.6915C98.0083 27.063 98.0715 27.3251 98.1979 27.4787C98.3246 27.6318 98.5251 27.7088 98.7995 27.7088C98.9233 27.7088 99.0982 27.6792 99.3243 27.62L99.5585 29.0488C99.3699 29.1243 99.1398 29.1848 98.8683 29.2304C98.5963 29.276 98.3393 29.299 98.0971 29.299C96.7139 29.299 96.0225 28.5483 96.0225 27.0467Z" fill="#030404"/>
<path d="M105.797 23.7603C105.76 23.0659 105.585 22.5454 105.273 22.1979C104.96 21.851 104.543 21.6774 104.021 21.6774C103.515 21.6774 103.094 21.8523 102.758 22.2022C102.421 22.5521 102.202 23.0715 102.1 23.7603H105.797ZM107.743 25.0275H102.043C102.135 26.8521 103.004 27.7643 104.651 27.7643C105.06 27.7643 105.478 27.7145 105.907 27.615C106.334 27.5153 106.744 27.3822 107.137 27.2153L107.573 28.5795C106.599 29.0534 105.504 29.2899 104.288 29.2899C103.362 29.2899 102.581 29.1153 101.947 28.7654C101.311 28.4155 100.834 27.9123 100.514 27.2555C100.193 26.5993 100.033 25.8081 100.033 24.8825C100.033 23.919 100.203 23.0902 100.542 22.3958C100.881 21.7017 101.353 21.1715 101.959 20.8054C102.564 20.4395 103.263 20.2566 104.054 20.2566C104.877 20.2566 105.565 20.4491 106.116 20.8339C106.668 21.2185 107.077 21.7313 107.343 22.3715C107.609 23.0123 107.743 23.7198 107.743 24.4947V25.0275Z" fill="#030404"/>
<path d="M109.249 22.6057C109.249 22.127 109.228 21.3977 109.185 20.4179H111.05C111.082 20.6603 111.113 20.9494 111.142 21.2859C111.172 21.6222 111.192 21.8953 111.203 22.1051C111.434 21.7233 111.662 21.4017 111.885 21.1406C112.108 20.8795 112.37 20.667 112.668 20.5027C112.967 20.3385 113.307 20.2566 113.689 20.2566C113.996 20.2566 114.26 20.2889 114.481 20.3534L114.23 22.0811C114.037 22.0219 113.821 21.9923 113.585 21.9923C113.116 21.9923 112.707 22.1121 112.357 22.3515C112.007 22.591 111.633 22.9851 111.235 23.5342V29.1286H109.249V22.6057Z" fill="#030404"/>
<path d="M115.591 32.6953C115.301 32.6444 115.061 32.5865 114.873 32.522L115.236 31.0689C115.37 31.1063 115.54 31.1428 115.745 31.1777C115.949 31.2129 116.143 31.2303 116.326 31.2303C117.209 31.2303 117.87 30.6623 118.312 29.5268L118.441 29.2039L115.228 20.4207H117.367L118.982 25.3292C119.245 26.1687 119.415 26.8119 119.49 27.2583C119.641 26.6287 119.819 25.9991 120.023 25.3695L121.662 20.4207H123.672L120.467 29.2444C120.166 30.0785 119.84 30.7511 119.49 31.2625C119.141 31.7737 118.728 32.1532 118.251 32.4009C117.775 32.6481 117.2 32.7721 116.528 32.7721C116.194 32.7721 115.882 32.7468 115.591 32.6953Z" fill="#030404"/>
<path d="M40.6018 6.30127H44.1559L44.0559 7.15967H41.6434V8.82207H43.9183V9.62634H41.6434V11.4679H44.185L44.0975 12.3346H40.6018V6.30127Z" fill="#030404"/>
<path d="M46.6052 9.2554L44.7303 6.30127H45.9135L47.1844 8.4722L48.522 6.30127H49.6719L47.8135 9.21807L49.826 12.3346H48.626L47.1887 9.95967L45.726 12.3346H44.5762L46.6052 9.2554Z" fill="#030404"/>
<path d="M53.2047 8.99514C53.4268 8.7938 53.538 8.5098 53.538 8.14314C53.538 7.77087 53.4247 7.50287 53.1986 7.33887C52.9722 7.17514 52.6394 7.093 52.2007 7.093H51.634V9.2346C51.8951 9.27647 52.0951 9.29727 52.234 9.29727C52.6588 9.29727 52.9826 9.19674 53.2047 8.99514ZM50.5922 6.30127H52.2172C52.981 6.30127 53.5658 6.457 53.9714 6.76794C54.377 7.07914 54.5796 7.52927 54.5796 8.11807C54.5796 8.51807 54.4887 8.8674 54.3068 9.16607C54.1247 9.46474 53.8714 9.6938 53.5463 9.85354C53.2215 10.0133 52.8476 10.093 52.4255 10.093C52.1951 10.093 51.9311 10.0655 51.634 10.0098V12.3346H50.5922V6.30127Z" fill="#030404"/>
<path d="M55.5873 6.30127H56.6289V11.4431H59.1246L59.0371 12.3346H55.5873V6.30127Z" fill="#030404"/>
<path d="M63.4052 11.3006C63.6969 11.1046 63.9148 10.8352 64.0593 10.492C64.2038 10.1491 64.2761 9.75657 64.2761 9.31497C64.2761 8.88164 64.2121 8.49577 64.0844 8.15657C63.9564 7.81791 63.7524 7.54777 63.4718 7.34617C63.1913 7.14511 62.8302 7.04431 62.3884 7.04431C61.9662 7.04431 61.6078 7.14617 61.3134 7.35044C61.019 7.55471 60.7982 7.82831 60.651 8.17124C60.5038 8.51444 60.4302 8.89284 60.4302 9.30671C60.4302 9.74297 60.4996 10.1334 60.6385 10.4776C60.7772 10.8222 60.9897 11.0942 61.2761 11.2942C61.562 11.4942 61.9161 11.5942 62.3385 11.5942C62.758 11.5942 63.1134 11.4963 63.4052 11.3006ZM60.7052 12.04C60.2636 11.7875 59.926 11.4326 59.6926 10.9755C59.4593 10.5187 59.3428 9.98751 59.3428 9.38164C59.3428 8.74564 59.4668 8.18964 59.7156 7.71284C59.9641 7.23657 60.3225 6.86857 60.7905 6.60884C61.2585 6.34911 61.8105 6.21924 62.4468 6.21924C63.055 6.21924 63.5788 6.34511 64.0177 6.59631C64.4564 6.84777 64.7913 7.20111 65.0217 7.65657C65.2524 8.11231 65.3676 8.64004 65.3676 9.24004C65.3676 9.88751 65.242 10.4499 64.9905 10.9275C64.739 11.4054 64.3809 11.7734 63.9156 12.0318C63.4502 12.2899 62.9038 12.4192 62.2761 12.4192C61.6705 12.4192 61.1468 12.2928 60.7052 12.04Z" fill="#030404"/>
<path d="M68.1953 9.1554C68.4479 9.1554 68.6713 9.10634 68.866 9.00767C69.0604 8.90927 69.2119 8.77007 69.3201 8.59087C69.4287 8.41167 69.4828 8.2042 69.4828 7.96794C69.4828 7.66554 69.3868 7.44394 69.1953 7.3034C69.0036 7.1634 68.7241 7.093 68.3575 7.093H67.6036V9.1554H68.1953ZM66.562 6.30127H68.4495C69.1383 6.30127 69.6599 6.43887 70.014 6.7138C70.3681 6.98874 70.5452 7.38207 70.5452 7.893C70.5452 8.21247 70.4812 8.4938 70.3535 8.73674C70.2257 8.97994 70.0673 9.1778 69.8785 9.3306C69.6895 9.4834 69.4953 9.59727 69.2953 9.6722L71.1495 12.3346H69.9412L68.3703 9.94314H67.6036V12.3346H66.562V6.30127Z" fill="#030404"/>
<path d="M71.9583 6.30127H75.5124L75.4124 7.15967H72.9999V8.82207H75.2748V9.62634H72.9999V11.4679H75.5414L75.454 12.3346H71.9583V6.30127Z" fill="#030404"/>
<path d="M80.438 6.30127H79.3964V12.3346H80.438V6.30127Z" fill="#030404"/>
<path d="M83.1632 7.1722H81.2922L81.384 6.30127H86.08L85.984 7.1722H84.2048V12.3346H83.1632V7.1722Z" fill="#030404"/>
<path d="M93.3034 11.3006C93.5949 11.1046 93.813 10.8352 93.9575 10.492C94.1018 10.1491 94.1741 9.75657 94.1741 9.31497C94.1741 8.88164 94.1101 8.49577 93.9826 8.15657C93.8546 7.81791 93.6503 7.54777 93.3701 7.34617C93.0893 7.14511 92.7282 7.04431 92.2866 7.04431C91.8642 7.04431 91.5061 7.14617 91.2117 7.35044C90.917 7.55471 90.6962 7.82831 90.5493 8.17124C90.4018 8.51444 90.3282 8.89284 90.3282 9.30671C90.3282 9.74297 90.3975 10.1334 90.5367 10.4776C90.6754 10.8222 90.8879 11.0942 91.1741 11.2942C91.4602 11.4942 91.8143 11.5942 92.2367 11.5942C92.6559 11.5942 93.0117 11.4963 93.3034 11.3006ZM90.6034 12.04C90.1615 11.7875 89.8242 11.4326 89.5909 10.9755C89.3575 10.5187 89.2407 9.98751 89.2407 9.38164C89.2407 8.74564 89.365 8.18964 89.6138 7.71284C89.8621 7.23657 90.2205 6.86857 90.6887 6.60884C91.1567 6.34911 91.7087 6.21924 92.345 6.21924C92.9533 6.21924 93.4767 6.34511 93.9159 6.59631C94.3546 6.84777 94.6893 7.20111 94.9199 7.65657C95.1503 8.11231 95.2658 8.64004 95.2658 9.24004C95.2658 9.88751 95.1399 10.4499 94.8887 10.9275C94.6373 11.4054 94.2789 11.7734 93.8138 12.0318C93.3485 12.2899 92.8018 12.4192 92.1741 12.4192C91.5685 12.4192 91.045 12.2928 90.6034 12.04Z" fill="#030404"/>
<path d="M96.4235 6.30127H97.6195L100.603 10.9765C100.578 10.5322 100.565 10.1221 100.565 9.74713V6.30127H101.532V12.3346H100.374L97.3445 7.58474C97.3749 8.12367 97.3901 8.60127 97.3901 9.01807V12.3346H96.4235V6.30127Z" fill="#030404"/>
<path fill-rule="evenodd" clip-rule="evenodd" d="M25.9565 6.32861H14.8781C9.6594 6.32861 7.75061 8.23768 7.75061 13.4561V24.5347C7.75061 29.7531 9.6594 31.6619 14.8781 31.6619H25.953C31.1717 31.6619 33.0839 29.7531 33.0839 24.5347V13.4561C33.0839 8.23768 31.1751 6.32861 25.9565 6.32861Z" fill="#C9202F"/>
<path d="M18.8197 21.0222H19.8357L19.3261 19.8372L18.8197 21.0222ZM18.5695 21.6196L18.2682 22.3092H17.5821L19.0413 18.999H19.6341L21.0874 22.3092H20.3829L20.0853 21.6196H18.5695ZM29.6103 22.307H30.2735V18.999H29.6103V22.307ZM26.9711 20.8854H28.1933V20.2828H26.9711V19.6046H28.7453V19.0012H26.3082V22.3089H28.8093V21.7057H26.9711V20.8854ZM24.3362 21.2764L23.5842 18.9988H23.0359L22.2839 21.2764L21.5522 19.0004H20.837L21.9914 22.3108H22.5477L23.3007 20.1364L24.0535 22.3108H24.6149L25.7663 19.0004H25.0695L24.3362 21.2764ZM16.5698 20.8948C16.5698 21.4332 16.3023 21.7209 15.8167 21.7209C15.3285 21.7209 15.0597 21.4252 15.0597 20.8718V19.0009H14.3877V20.8948C14.3877 21.8265 14.9053 22.3606 15.8077 22.3606C16.7189 22.3606 17.2415 21.8164 17.2415 20.8673V18.9988H16.5698V20.8948ZM12.7842 18.999H13.4559V22.311H12.7842V20.966H11.2666V22.311H10.5946V18.999H11.2666V20.335H12.7842V18.999Z" fill="white"/>
<path d="M20.4264 14.7842C18.1013 14.7842 16.2096 12.8925 16.2096 10.5671H16.8053C16.8053 12.5639 18.4296 14.1882 20.4264 14.1882C22.4232 14.1882 24.0474 12.5639 24.0474 10.5671H24.6432C24.6432 12.8925 22.7515 14.7842 20.4264 14.7842Z" fill="white"/>
</g>
<defs>
<clipPath id="clip0_86_1412">
<rect width="132" height="38" fill="white"/>
</clipPath>
</defs>
</svg>
