<svg width="141" height="147" viewBox="0 0 141 147" fill="none" xmlns="http://www.w3.org/2000/svg">
<path d="M78.2187 13.9355C108.48 13.9355 133.051 38.5058 133.051 68.7675C133.051 99.0293 108.48 123.599 78.2187 123.599C47.9569 123.599 23.3867 99.0293 23.3867 68.7675C23.3867 38.5058 47.9569 13.9355 78.2187 13.9355Z" fill="#5061E2"/>
<path d="M138.477 113.771C124.754 132.108 102.862 143.985 78.2186 143.985C36.7054 143.985 3 110.28 3 68.7667C3 57.8354 5.33718 47.446 9.53783 38.0703" stroke="#B5FBCD" stroke-width="5" stroke-linecap="round"/>
<path d="M28.7949 23.7395C38.4335 13.1676 51.4139 5.69487 66.0582 3" stroke="#B5FBCD" stroke-width="5" stroke-linecap="round"/>
<path d="M73.084 9.26686C74.7765 9.12241 76.489 9.04883 78.2188 9.04883" stroke="#B5FBCD" stroke-width="5" stroke-linecap="round"/>
<path d="M50.3491 78.8573C50.3491 78.8573 60.0274 92.356 65.6307 92.1013C69.5081 91.925 93.8161 63.2627 103.5 51" stroke="white" stroke-width="15" stroke-linecap="round"/>
</svg>
