<svg width="25" height="23" viewBox="0 0 25 23" fill="none" xmlns="http://www.w3.org/2000/svg">
<path fill-rule="evenodd" clip-rule="evenodd" d="M2.62259 15.4056C-0.374562 8.049 5.03758 0 12.9813 0H13.4099C19.3507 0 24.1667 4.81601 24.1667 10.7569C24.1667 17.3713 18.8047 22.7333 12.1903 22.7333H1.76324C1.3389 22.7333 0.96076 22.4655 0.819923 22.0652C0.679086 21.6649 0.80622 21.2193 1.13708 20.9536L3.76573 18.8426C3.88067 18.7503 3.92133 18.5935 3.86571 18.4569L2.62259 15.4056ZM12.9813 2C6.45795 2 2.01353 8.6098 4.47478 14.6511L5.71789 17.7023C6.10722 18.658 5.82262 19.7558 5.01806 20.402L4.60546 20.7333H12.1903C17.7001 20.7333 22.1667 16.2667 22.1667 10.7569C22.1667 5.92058 18.2462 2 13.4099 2H12.9813Z" fill="#5061E2"/>
</svg>
