<svg width="50" height="50" viewBox="0 0 50 50" fill="none" xmlns="http://www.w3.org/2000/svg">
<g clip-path="url(#clip0_86_507)">
<rect width="50" height="50" rx="10" fill="white"/>
<g clip-path="url(#clip1_86_507)">
<rect width="50" height="50" fill="white"/>
<rect width="50" height="50" fill="#DFEDF5"/>
<rect width="50" height="50" fill="white"/>
<circle cx="25" cy="25" r="21.5909" fill="#4681C7" fill-opacity="0.06"/>
<circle cx="25" cy="25" r="21.3409" stroke="#2869BF" stroke-opacity="0.04" stroke-width="0.5"/>
<circle cx="25" cy="25" r="13.6364" fill="#4681C7" fill-opacity="0.09"/>
<circle cx="25" cy="25" r="13.3864" stroke="#2869BF" stroke-opacity="0.04" stroke-width="0.5"/>
<path fill-rule="evenodd" clip-rule="evenodd" d="M25.25 0H24.75V24.75H0V25.25H24.75V50H25.25V25.25H50V24.75H25.25V0Z" fill="#3668A8" fill-opacity="0.2"/>
</g>
<rect width="50" height="50" fill="#5061E2"/>
<g clip-path="url(#clip2_86_507)">
<path d="M35.4736 26.5523C34.3711 25.5472 32.947 25.1642 31.3851 25.4514C30.3514 25.6429 29.3638 26.2412 28.422 26.7917C27.4573 27.3661 26.5386 27.9405 25.5738 28.084C25.4131 28.1319 25.3212 28.1319 25.1834 28.1319H25.1145C24.9537 28.1319 24.7929 28.1558 24.6321 28.1319C24.5402 28.1319 24.4713 28.1319 24.3565 28.108C24.2876 28.108 24.2187 28.084 24.1498 28.084C23.185 27.9165 22.2433 27.3421 21.3245 26.7917C20.4747 26.2891 19.6018 25.7386 18.706 25.5232C17.0752 25.0924 15.4444 25.4754 14.25 26.5523C11.7464 28.826 11.9072 32.9664 12.045 36.317C12.0679 37.0828 12.1139 37.8248 12.1139 38.4709C12.1139 39.0932 12.3665 39.5958 12.8489 39.883C13.3772 40.1941 14.0663 40.1941 14.5946 39.883C15.0769 39.5958 15.3525 39.0932 15.3525 38.4709C15.3525 38.0641 15.3296 37.5376 15.3066 36.9392C15.1918 34.522 15.031 30.5013 16.501 29.2568C16.9604 28.8499 17.5806 28.7781 18.3615 28.9935C19.3722 29.2568 20.222 29.7354 21.0259 30.1901C21.715 30.5731 22.3811 30.9321 23.1161 31.1953L23.208 31.2193C23.2769 31.2432 23.3688 31.2671 23.4377 31.2911C23.5526 31.3389 23.6674 31.3868 23.7822 31.3868C25.2752 31.6501 26.4467 31.5065 27.8248 30.8842C28.3531 30.6449 28.8355 30.3337 29.3178 30.0226C30.0069 29.5918 30.65 29.161 31.3621 28.9696C32.166 28.7542 32.7632 28.8499 33.2456 29.2328C34.7156 30.4773 34.5318 34.4981 34.417 36.8914C34.394 37.5136 34.3711 38.0402 34.3711 38.447C34.3711 39.524 35.198 40.0984 36.0019 40.0984C36.8058 40.0984 37.6097 39.524 37.6097 38.447C37.6097 37.7769 37.6327 37.0589 37.6786 36.2691C37.7935 32.9664 37.9772 28.826 35.4736 26.5523Z" fill="white"/>
<path d="M25.2063 22.194C22.7486 22.3375 20.6354 20.2315 20.7503 17.5749C20.8192 15.9714 21.7379 14.5115 23.1391 13.7935C24.2875 13.2191 25.5049 13.2191 26.5385 13.6738C27.1357 13.9371 27.8478 13.7456 28.2612 13.2191L28.2842 13.1952C28.9503 12.3815 28.6517 11.113 27.687 10.7061C26.7223 10.3232 25.6657 10.1318 24.5632 10.1796C20.3598 10.419 17.1671 14.3679 17.7643 18.8194C18.2466 22.3854 21.0029 25.0659 24.4483 25.3292C26.0102 25.4488 27.5032 25.042 28.7436 24.2522C29.6394 23.6778 29.7312 22.3854 28.9273 21.6914C28.422 21.2606 27.7099 21.1888 27.1587 21.5478C26.5844 21.9068 25.9183 22.1461 25.2063 22.194Z" fill="white"/>
</g>
</g>
<defs>
<clipPath id="clip0_86_507">
<rect width="50" height="50" rx="10" fill="white"/>
</clipPath>
<clipPath id="clip1_86_507">
<rect width="50" height="50" fill="white"/>
</clipPath>
<clipPath id="clip2_86_507">
<rect width="25.7485" height="29.9401" fill="white" transform="translate(11.9761 10.1796)"/>
</clipPath>
</defs>
</svg>
