<svg width="141" height="24" viewBox="0 0 141 24" fill="none" xmlns="http://www.w3.org/2000/svg">
<g clip-path="url(#clip0_86_493)">
<path d="M106.955 15.298V21.001C106.955 21.9024 106.748 22.5774 106.332 23.026C106.128 23.2509 105.877 23.4283 105.597 23.5457C105.316 23.663 105.014 23.7174 104.71 23.7051C104.413 23.715 104.118 23.6592 103.845 23.5418C103.572 23.4244 103.329 23.2483 103.132 23.026C102.729 22.5774 102.528 21.9024 102.528 21.001V14.1661C102.538 13.3271 102.502 12.4882 102.42 11.6532C102.371 11.1142 102.162 10.6021 101.819 10.1828C101.497 9.80062 100.989 9.60747 100.282 9.60747C98.8785 9.60747 97.9536 10.0921 97.5078 11.0613C97.0634 12.0249 96.837 13.4081 96.837 15.2149V21.0135C96.837 21.9024 96.6362 22.576 96.2347 23.0343C96.0359 23.2585 95.7901 23.436 95.5147 23.5541C95.2393 23.6723 94.9412 23.7281 94.6418 23.7175C94.342 23.7257 94.0441 23.6689 93.7684 23.5509C93.4927 23.433 93.2458 23.2567 93.0447 23.0343C92.6293 22.5774 92.4216 21.9038 92.4216 21.0135V8.73935C92.4216 7.93561 92.6065 7.3188 92.9803 6.90135C93.1637 6.69589 93.3903 6.53349 93.6437 6.42578C93.8972 6.31807 94.1713 6.26771 94.4466 6.2783C94.7189 6.27128 94.9898 6.31997 95.2426 6.4214C95.4955 6.52282 95.725 6.67484 95.9169 6.86811C96.133 7.10326 96.2866 7.38891 96.3635 7.69885C96.3986 7.80538 96.4602 7.90127 96.5424 7.9776C96.6246 8.05392 96.7248 8.10819 96.8337 8.13535C96.9425 8.16251 97.0565 8.16168 97.1649 8.13293C97.2733 8.10418 97.3727 8.04844 97.4538 7.97092C97.8856 7.56071 98.3754 7.21641 98.9076 6.94911C99.789 6.52365 100.758 6.31028 101.736 6.32606C102.702 6.29999 103.659 6.52088 104.515 6.96781C105.033 7.25774 105.491 7.6424 105.867 8.10176C105.948 8.19219 106.046 8.26503 106.156 8.31573C106.267 8.36643 106.386 8.39389 106.507 8.39643C106.628 8.39896 106.749 8.3765 106.861 8.33045C106.973 8.2844 107.074 8.21574 107.159 8.12876C107.631 7.66324 108.17 7.27058 108.758 6.96365C109.609 6.53154 110.553 6.31274 111.508 6.32606C112.561 6.29829 113.605 6.53613 114.542 7.01765C115.371 7.45655 116.038 8.14945 116.444 8.99481C116.81 9.77155 116.993 10.9927 116.993 12.6584V21.0343C116.993 21.9356 116.785 22.6106 116.382 23.0592C116.174 23.2747 115.924 23.4462 115.648 23.5632C115.372 23.6803 115.075 23.7406 114.775 23.7406C114.475 23.7406 114.178 23.6803 113.902 23.5632C113.626 23.4462 113.376 23.2747 113.167 23.0592C112.752 22.6023 112.544 21.9273 112.544 21.0384V13.7902C112.553 13.0491 112.513 12.3082 112.426 11.5722C112.363 11.0516 112.14 10.5634 111.788 10.1745C111.441 9.79647 110.917 9.60747 110.218 9.60747C109.642 9.61152 109.081 9.78645 108.604 10.1101C108.098 10.4483 107.689 10.9138 107.419 11.46C107.11 12.1855 106.955 13.4649 106.955 15.298Z" fill="#5061E2"/>
<path d="M15.9065 16.5213C15.4953 16.512 15.0962 16.6606 14.7913 16.9367C14.4462 17.2632 14.159 17.6459 13.9418 18.0685C13.551 18.7948 12.9937 19.4183 12.3157 19.8879C11.6544 20.3012 10.8854 20.5094 10.1059 20.486C9.49975 20.4933 8.89934 20.3678 8.34683 20.1184C7.81197 19.8693 7.34368 19.497 6.98026 19.0322C6.58312 18.5184 6.2897 17.9322 6.1163 17.3063C5.90866 16.5812 5.80653 15.83 5.81308 15.0758C5.81308 13.359 6.20007 12.0055 6.97404 11.0156C7.32819 10.5405 7.7913 10.1574 8.32441 9.89859C8.85751 9.63981 9.445 9.5129 10.0374 9.52855C10.8104 9.4984 11.5738 9.70884 12.2222 10.1308C12.8764 10.6202 13.4335 11.2273 13.865 11.9211C14.0862 12.2533 14.3533 12.5525 14.6584 12.81C14.9141 13 15.2268 13.0974 15.5452 13.0862C16.0612 13.0962 16.5606 12.9039 16.9367 12.5504C17.1204 12.3869 17.2669 12.1859 17.3662 11.9608C17.4654 11.7358 17.5152 11.492 17.5119 11.2461C17.4881 10.6682 17.3111 10.1069 16.999 9.61993C16.6107 8.98646 16.1095 8.42965 15.5202 7.97716C14.8105 7.43037 14.0145 7.00572 13.1651 6.72067C12.1798 6.38865 11.1456 6.22436 10.1059 6.23468C8.31775 6.23468 6.78296 6.60228 5.48909 7.34164C4.21133 8.06545 3.18142 9.1576 2.53375 10.4756C1.82887 11.9292 1.47868 13.5292 1.51193 15.1443C1.51193 17.7418 2.25476 19.8131 3.74039 21.3583C5.22603 22.9034 7.29664 23.676 9.95223 23.676C11.0922 23.6919 12.2271 23.5221 13.3126 23.1734C14.2142 22.8904 15.0542 22.4395 15.7882 21.8443C16.3828 21.3653 16.8799 20.7766 17.2523 20.1101C17.5481 19.5854 17.712 18.9967 17.73 18.3946C17.7199 17.9203 17.5342 17.4666 17.2087 17.1215C17.0503 16.9306 16.851 16.7776 16.6257 16.6737C16.4004 16.5698 16.1546 16.5178 15.9065 16.5213Z" fill="#5061E2"/>
<path d="M22.9491 0.539974C22.7491 0.317731 22.5018 0.143199 22.2254 0.0292561C21.949 -0.0846874 21.6505 -0.135134 21.352 -0.118382C21.0596 -0.134099 20.7674 -0.0838402 20.4971 0.0286856C20.2267 0.141211 19.9851 0.313122 19.7902 0.531671C19.4206 0.967808 19.235 1.61993 19.2336 2.48805V21.0945C19.2336 22.8335 19.9398 23.7037 21.352 23.7051C21.6517 23.7217 21.9512 23.6699 22.2279 23.5537C22.5045 23.4374 22.7512 23.2598 22.9491 23.0343C23.3126 22.6189 23.4995 21.9958 23.5161 21.2066V2.3759C23.4995 1.57423 23.3126 0.959496 22.9491 0.539974Z" fill="#5061E2"/>
<path d="M33.7529 8.96157C33.3005 8.11274 32.6105 7.41414 31.7674 6.95119C30.8728 6.47704 29.8721 6.239 28.8598 6.25959C28.1744 6.25387 27.4917 6.3469 26.8328 6.53582C26.508 6.63051 26.1918 6.7528 25.8878 6.90134C25.6556 7.02062 25.4614 7.20245 25.327 7.42632C25.1927 7.65019 25.1237 7.90717 25.1277 8.16821V8.22429C25.1315 8.43825 25.1824 8.64874 25.2769 8.84075C25.3713 9.03276 25.507 9.20154 25.6743 9.33505C25.8415 9.46857 26.0362 9.56351 26.2443 9.61312C26.4525 9.66272 26.669 9.66575 26.8785 9.622C27.0194 9.5931 27.1626 9.57711 27.3063 9.57424C28.4465 9.57424 29.2212 9.94807 29.6324 10.6853C30.0436 11.4226 30.243 12.4777 30.243 13.8484V21.0945C30.243 22.8335 30.9498 23.7037 32.3635 23.7051C32.6568 23.7167 32.9492 23.6634 33.2195 23.5489C33.4899 23.4343 33.7316 23.2614 33.9273 23.0426C34.3191 22.6023 34.5157 21.9529 34.5171 21.0945V12.8764C34.5226 12.1432 34.4712 11.4106 34.3634 10.6853C34.2665 10.0784 34.0596 9.49422 33.7529 8.96157Z" fill="#5061E2"/>
<path d="M52.8805 15.8733C52.5244 15.7184 52.1226 15.705 51.757 15.8359C51.4237 15.9104 51.1286 16.1029 50.9262 16.378C50.5607 17.001 50.2596 17.5203 50.0228 17.8962C49.7794 18.2851 49.508 18.6557 49.2108 19.0052C48.9168 19.3535 48.5724 19.656 48.1889 19.9024C47.7877 20.1552 47.3528 20.3503 46.8971 20.4818C46.1926 20.7019 45.4411 20.7241 44.7248 20.5462C43.9786 20.3483 43.3038 19.9428 42.7788 19.377C42.6708 19.2648 42.5711 19.1423 42.4755 19.0197C42.468 19.0054 42.4597 18.9916 42.4506 18.9782C42.1228 18.5508 41.8577 18.0787 41.6635 17.5763C40.8182 15.8401 40.6064 14.3821 40.6251 13.3333C40.6073 12.7804 40.6831 12.2285 40.8494 11.7009L40.8618 11.6594C40.8618 11.6324 40.8805 11.6033 40.8909 11.5763C40.9013 11.5493 40.9054 11.5348 40.9054 11.5348C40.9449 11.4372 40.9844 11.3396 41.0301 11.2461C41.2438 10.8021 41.5507 10.4094 41.9299 10.0948C42.309 9.7801 42.7516 9.55086 43.2274 9.42264C44.299 9.10004 45.2682 9.18795 46.1349 9.68639C47.0017 10.1848 47.694 11.1208 48.2118 12.4943L43.8504 13.8069C43.551 13.8951 43.2974 14.0956 43.1425 14.3666C42.9877 14.6376 42.9437 14.9579 43.0197 15.2606V15.2835C43.0601 15.4416 43.1321 15.5898 43.2312 15.7194C43.3303 15.849 43.4545 15.9573 43.5965 16.0378C43.7384 16.1183 43.8951 16.1693 44.0572 16.1877C44.2193 16.2062 44.3835 16.1918 44.5399 16.1454L49.4828 14.6542C50.5566 14.3302 51.352 13.9273 51.8421 13.4393C52.3323 12.9512 52.434 12.1931 52.1246 11.1547C51.7699 10.0087 51.1337 8.96977 50.2741 8.13292C49.3525 7.22379 48.1962 6.58885 46.9345 6.29906C45.5832 5.96677 44.1052 6.04361 42.5005 6.52959C41.3455 6.86104 40.2633 7.40708 39.3104 8.13914C38.4492 8.80482 37.7498 9.65686 37.2647 10.6314C36.7898 11.6139 36.5259 12.685 36.4901 13.7757C36.4519 14.9713 36.6147 16.1647 36.9719 17.3063C37.7486 19.8858 39.0958 21.7058 41.0134 22.7664C42.9311 23.8269 45.2094 23.9612 47.8483 23.1693C48.8918 22.8732 49.8796 22.408 50.7725 21.7923C51.4913 21.2993 52.1229 20.69 52.6417 19.9896C53.0493 19.4425 53.3495 18.823 53.5264 18.1641C53.6657 17.6991 53.6807 17.2057 53.5701 16.7331C53.5266 16.5474 53.4421 16.3738 53.3228 16.225C53.2035 16.0762 53.0524 15.9561 52.8805 15.8733Z" fill="#5061E2"/>
<path d="M68.7705 16.5213C68.3599 16.5121 67.9614 16.6608 67.6573 16.9367C67.3107 17.2624 67.0227 17.6453 66.8058 18.0685C66.4155 18.7953 65.8582 19.4189 65.1796 19.8879C64.5189 20.3008 63.7507 20.5089 62.9719 20.486C62.365 20.4936 61.7639 20.3681 61.2107 20.1184C60.6759 19.8693 60.2076 19.497 59.8442 19.0322C59.4485 18.5177 59.1558 17.9317 58.9823 17.3063C58.7762 16.5825 58.6761 15.8326 58.6853 15.08C58.6853 13.3631 59.0716 12.0097 59.8442 11.0197C60.1984 10.5448 60.6616 10.1618 61.1947 9.90299C61.7277 9.64422 62.3152 9.51724 62.9075 9.53272C63.6786 9.50302 64.4401 9.71189 65.0882 10.1309C65.7414 10.6213 66.2983 11.2283 66.731 11.9211C66.9516 12.2532 67.218 12.5524 67.5223 12.81C67.7786 13.0003 68.0921 13.0977 68.4111 13.0862C68.9271 13.0956 69.4263 12.9034 69.8026 12.5504C69.9857 12.3865 70.1316 12.1853 70.2305 11.9603C70.3293 11.7353 70.3789 11.4918 70.3758 11.2461C70.3519 10.6685 70.1756 10.1075 69.865 9.61994C69.4755 8.9874 68.9745 8.43079 68.3862 7.97717C67.6761 7.43097 66.8802 7.00638 66.0311 6.72068C65.0457 6.38885 64.0116 6.22457 62.9719 6.23469C61.1817 6.23469 59.642 6.60368 58.353 7.34165C57.0763 8.0661 56.0472 9.15813 55.3997 10.4756C54.6941 11.929 54.3433 13.529 54.3759 15.1444C54.3759 17.7418 55.1194 19.8131 56.6064 21.3583C58.0934 22.9034 60.1633 23.676 62.8161 23.676C63.9561 23.6919 65.091 23.5221 66.1765 23.1734C67.0787 22.8904 67.9194 22.4395 68.6541 21.8443C69.2458 21.3651 69.7394 20.7763 70.1079 20.1101C70.4037 19.5854 70.5676 18.9967 70.5856 18.3946C70.5755 17.9207 70.3906 17.4673 70.0664 17.1215C69.9086 16.9314 69.7104 16.7789 69.4862 16.6751C69.262 16.5712 69.0175 16.5187 68.7705 16.5213Z" fill="#5061E2"/>
<path d="M81.5702 12.7248L83.8007 10.567C84.9651 9.52025 85.548 8.68259 85.5494 8.054C85.5555 7.81441 85.5108 7.57623 85.4185 7.35506C85.3262 7.13389 85.1882 6.9347 85.0136 6.77051C84.6766 6.47198 84.2499 6.29387 83.8007 6.26417C83.3515 6.23447 82.9051 6.35488 82.5318 6.60645C82.041 6.99819 81.5827 7.42878 81.161 7.89408L76.3386 12.9553V2.55037C76.3386 1.67186 76.1455 1.00936 75.755 0.556605C75.5612 0.332877 75.3193 0.155927 75.0474 0.0390297C74.7755 -0.0778676 74.4806 -0.131678 74.1849 -0.118369C73.8817 -0.133434 73.5795 -0.073239 73.3051 0.0568522C73.0308 0.186943 72.793 0.382881 72.6127 0.627211C72.2493 1.12565 72.0645 1.85048 72.0645 2.80167V21.0945C72.0645 21.9515 72.2527 22.6009 72.6293 23.0426C72.822 23.263 73.062 23.4371 73.3313 23.5518C73.6007 23.6665 73.8925 23.7189 74.1849 23.7051C74.4678 23.7042 74.7475 23.6441 75.0057 23.5286C75.264 23.413 75.4952 23.2446 75.6844 23.0343C76.1205 22.5898 76.3386 21.9522 76.3386 21.1277V17.7155L77.4601 16.6563L81.5702 12.7248Z" fill="#5061E2"/>
<path d="M85.9252 19.5722L83.7653 16.1765C83.6056 15.9267 83.3927 15.7152 83.1417 15.5573C82.8907 15.3994 82.6079 15.299 82.3135 15.2633C82.0191 15.2276 81.7205 15.2574 81.439 15.3507C81.1575 15.4439 80.9002 15.5983 80.6854 15.8027C80.3556 16.119 80.1434 16.5382 80.0837 16.9912C80.0241 17.4442 80.1206 17.9041 80.3572 18.2949L82.4486 21.7383C82.7796 22.2869 83.1628 22.8023 83.5929 23.2773C83.7555 23.4265 83.9465 23.5414 84.1546 23.6149C84.3627 23.6884 84.5835 23.7191 84.8037 23.7051C85.0767 23.716 85.349 23.6689 85.6024 23.5669C85.8559 23.4649 86.0849 23.3102 86.2741 23.1132C86.6645 22.6709 86.8645 22.0925 86.8307 21.5036C86.8258 21.2363 86.7544 20.9743 86.623 20.7414C86.4839 20.4735 86.2492 20.0831 85.9252 19.5722Z" fill="#5061E2"/>
<path d="M136.633 7.94391H137.35V9.93768H137.58V7.94391H138.297V7.70923H136.633V7.94391Z" fill="#5061E2"/>
<path d="M140.484 7.70923L139.612 9.57008L138.744 7.70923H138.544V9.93768H138.777V8.33228L139.524 9.93768H139.697L140.453 8.3302V9.93768H140.687V7.70923H140.484Z" fill="#5061E2"/>
<path d="M42.4756 19.0239L42.4445 18.9865C42.4555 18.9984 42.4659 19.0109 42.4756 19.0239Z" fill="#5061E2"/>
<path d="M135.871 16.1392C135.515 15.9846 135.114 15.9705 134.748 16.0997C134.415 16.1757 134.12 16.3688 133.917 16.6438C133.551 17.2766 133.25 17.7826 133.013 18.162C132.77 18.5509 132.499 18.9216 132.201 19.271C131.907 19.619 131.563 19.9213 131.18 20.1682C130.778 20.4202 130.343 20.6152 129.888 20.7477C129.183 20.9677 128.432 20.99 127.715 20.812C126.97 20.6133 126.295 20.208 125.769 19.6428C125.661 19.5306 125.562 19.4081 125.466 19.2856C125.459 19.2713 125.45 19.2574 125.441 19.244C125.114 18.8164 124.849 18.3444 124.654 17.8422C123.809 16.1059 123.597 14.648 123.616 13.5992C123.597 13.0462 123.673 12.4942 123.84 11.9668L123.853 11.9252C123.863 11.8982 123.871 11.8692 123.882 11.8422C123.892 11.8152 123.896 11.8006 123.896 11.8006C123.936 11.703 123.975 11.6054 124.021 11.512C124.234 11.068 124.541 10.6753 124.921 10.3606C125.3 10.0459 125.742 9.81669 126.218 9.68848C127.29 9.36726 128.259 9.45518 129.126 9.95224C129.992 10.4493 130.685 11.3853 131.202 12.7601L126.841 14.0727C126.541 14.1604 126.287 14.3609 126.133 14.632C125.978 14.9032 125.934 15.2238 126.01 15.5265V15.5493C126.051 15.7074 126.123 15.8557 126.222 15.9853C126.321 16.1149 126.445 16.2232 126.587 16.3036C126.729 16.3841 126.886 16.4351 127.048 16.4536C127.21 16.4721 127.374 16.4577 127.531 16.4112L132.474 14.92C133.547 14.5961 134.343 14.1932 134.833 13.7051C135.323 13.217 135.425 12.459 135.115 11.4206C134.76 10.2749 134.124 9.23616 133.265 8.39875C132.336 7.48003 131.168 6.84036 129.894 6.55245C128.541 6.22016 127.063 6.297 125.46 6.78298C124.305 7.11354 123.222 7.65966 122.27 8.39253C121.41 9.05524 120.711 9.90362 120.224 10.8744C119.749 11.8569 119.485 12.928 119.45 14.0187C119.41 15.2177 119.573 16.4148 119.931 17.5597C120.708 20.1392 122.055 21.9592 123.973 23.0197C125.891 24.0803 128.169 24.2146 130.808 23.4226C131.851 23.1248 132.838 22.6598 133.732 22.0457C134.451 21.5534 135.083 20.9441 135.601 20.243C136.01 19.6965 136.311 19.0769 136.488 18.4175C136.627 17.9525 136.642 17.4591 136.532 16.9865C136.49 16.8058 136.409 16.6363 136.295 16.49C136.181 16.3437 136.036 16.2239 135.871 16.1392Z" fill="#5061E2"/>
<path d="M124.035 19.0239L124.004 18.9865C124.014 18.9995 124.024 19.012 124.035 19.0239Z" fill="#5061E2"/>
</g>
<defs>
<clipPath id="clip0_86_493">
<rect width="141" height="24" fill="white"/>
</clipPath>
</defs>
</svg>
