<svg width="187" height="40" viewBox="0 0 187 40" fill="none" xmlns="http://www.w3.org/2000/svg">
<g clip-path="url(#clip0_86_1335)">
<path d="M152.955 23.298V29.001C152.955 29.9023 152.748 30.5773 152.332 31.0259C152.128 31.2509 151.877 31.4283 151.597 31.5456C151.316 31.6629 151.014 31.7174 150.71 31.705C150.413 31.7149 150.118 31.6592 149.845 31.5418C149.572 31.4244 149.329 31.2482 149.132 31.0259C148.729 30.5773 148.528 29.9023 148.528 29.001V22.1661C148.538 21.3271 148.502 20.4881 148.42 19.6531C148.371 19.1141 148.162 18.602 147.819 18.1827C147.497 17.8006 146.989 17.6074 146.282 17.6074C144.879 17.6074 143.954 18.092 143.508 19.0612C143.063 20.0249 142.837 21.408 142.837 23.2149V29.0134C142.837 29.9023 142.636 30.5759 142.235 31.0342C142.036 31.2584 141.79 31.436 141.515 31.5541C141.239 31.6722 140.941 31.728 140.642 31.7175C140.342 31.7256 140.044 31.6688 139.768 31.5508C139.493 31.4329 139.246 31.2566 139.045 31.0342C138.629 30.5773 138.422 29.9037 138.422 29.0134V16.7393C138.422 15.9356 138.606 15.3187 138.98 14.9013C139.164 14.6958 139.39 14.5334 139.644 14.4257C139.897 14.318 140.171 14.2677 140.447 14.2782C140.719 14.2712 140.99 14.3199 141.243 14.4213C141.495 14.5228 141.725 14.6748 141.917 14.8681C142.133 15.1032 142.287 15.3889 142.363 15.6988C142.399 15.8053 142.46 15.9012 142.542 15.9775C142.625 16.0539 142.725 16.1081 142.834 16.1353C142.943 16.1624 143.056 16.1616 143.165 16.1329C143.273 16.1041 143.373 16.0484 143.454 15.9709C143.886 15.5606 144.375 15.2163 144.908 14.9491C145.789 14.5236 146.758 14.3102 147.736 14.326C148.702 14.2999 149.659 14.5208 150.515 14.9677C151.033 15.2577 151.491 15.6423 151.867 16.1017C151.948 16.1921 152.046 16.265 152.156 16.3157C152.267 16.3664 152.386 16.3938 152.507 16.3964C152.628 16.3989 152.749 16.3764 152.861 16.3304C152.973 16.2843 153.074 16.2157 153.159 16.1287C153.631 15.6632 154.17 15.2705 154.758 14.9636C155.609 14.5315 156.553 14.3127 157.508 14.326C158.561 14.2982 159.605 14.5361 160.542 15.0176C161.371 15.4565 162.038 16.1494 162.444 16.9948C162.81 17.7715 162.993 18.9927 162.993 20.6583V29.0342C162.993 29.9356 162.785 30.6105 162.382 31.0591C162.174 31.2747 161.924 31.4461 161.648 31.5632C161.372 31.6802 161.075 31.7405 160.775 31.7405C160.475 31.7405 160.178 31.6802 159.902 31.5632C159.626 31.4461 159.376 31.2747 159.167 31.0591C158.752 30.6022 158.544 29.9273 158.544 29.0384V21.7902C158.553 21.049 158.513 20.3081 158.426 19.5721C158.363 19.0516 158.14 18.5633 157.788 18.1744C157.441 17.7964 156.917 17.6074 156.218 17.6074C155.642 17.6115 155.081 17.7864 154.604 18.11C154.098 18.4482 153.689 18.9138 153.419 19.46C153.11 20.1855 152.955 21.4648 152.955 23.298Z" fill="#5061E2"/>
<path d="M61.9065 24.5214C61.4953 24.5121 61.0962 24.6608 60.7913 24.9368C60.4462 25.2634 60.159 25.6461 59.9418 26.0687C59.551 26.795 58.9937 27.4184 58.3157 27.888C57.6544 28.3014 56.8854 28.5095 56.1059 28.4861C55.4997 28.4934 54.8993 28.368 54.3468 28.1185C53.812 27.8694 53.3437 27.4972 52.9803 27.0323C52.5831 26.5185 52.2897 25.9323 52.1163 25.3065C51.9087 24.5814 51.8065 23.8302 51.8131 23.076C51.8131 21.3591 52.2001 20.0057 52.974 19.0157C53.3282 18.5406 53.7913 18.1575 54.3244 17.8987C54.8575 17.64 55.445 17.5131 56.0374 17.5287C56.8104 17.4986 57.5738 17.709 58.2222 18.131C58.8764 18.6204 59.4335 19.2275 59.865 19.9212C60.0862 20.2534 60.3533 20.5527 60.6584 20.8101C60.9141 21.0002 61.2268 21.0976 61.5452 21.0863C62.0612 21.0964 62.5606 20.9041 62.9367 20.5505C63.1204 20.3871 63.2669 20.186 63.3662 19.961C63.4654 19.7359 63.5152 19.4922 63.5119 19.2463C63.4881 18.6683 63.3111 18.1071 62.999 17.6201C62.6107 16.9866 62.1095 16.4298 61.5202 15.9773C60.8105 15.4305 60.0145 15.0059 59.1651 14.7208C58.1798 14.3888 57.1456 14.2245 56.1059 14.2348C54.3177 14.2348 52.783 14.6024 51.4891 15.3418C50.2113 16.0656 49.1814 17.1578 48.5337 18.4757C47.8289 19.9293 47.4787 21.5294 47.5119 23.1445C47.5119 25.7419 48.2548 27.8132 49.7404 29.3584C51.226 30.9036 53.2966 31.6762 55.9522 31.6762C57.0922 31.692 58.2271 31.5223 59.3126 31.1736C60.2142 30.8906 61.0542 30.4396 61.7882 29.8444C62.3828 29.3655 62.8799 28.7767 63.2523 28.1102C63.5481 27.5855 63.712 26.9968 63.73 26.3948C63.7199 25.9205 63.5342 25.4668 63.2087 25.1216C63.0503 24.9307 62.851 24.7777 62.6257 24.6739C62.4004 24.57 62.1546 24.5179 61.9065 24.5214Z" fill="#5061E2"/>
<path d="M68.9491 8.53991C68.7491 8.31767 68.5018 8.14314 68.2254 8.0292C67.949 7.91525 67.6505 7.86481 67.352 7.88156C67.0596 7.86584 66.7674 7.9161 66.4971 8.02862C66.2267 8.14115 65.9851 8.31306 65.7902 8.53161C65.4206 8.96775 65.235 9.61987 65.2336 10.488V29.0944C65.2336 30.8334 65.9398 31.7036 67.352 31.705C67.6517 31.7216 67.9512 31.6698 68.2279 31.5536C68.5045 31.4374 68.7512 31.2598 68.9491 31.0342C69.3126 30.6188 69.4995 29.9958 69.5161 29.2066V10.3758C69.4995 9.57417 69.3126 8.95943 68.9491 8.53991Z" fill="#5061E2"/>
<path d="M79.7529 16.9615C79.3005 16.1127 78.6105 15.4141 77.7674 14.9511C76.8728 14.477 75.8721 14.2389 74.8598 14.2595C74.1744 14.2538 73.4917 14.3468 72.8328 14.5358C72.508 14.6305 72.1918 14.7527 71.8878 14.9013C71.6556 15.0206 71.4614 15.2024 71.327 15.4263C71.1927 15.6501 71.1237 15.9071 71.1277 16.1682V16.2242C71.1315 16.4382 71.1824 16.6487 71.2769 16.8407C71.3713 17.0327 71.507 17.2015 71.6743 17.335C71.8415 17.4685 72.0362 17.5635 72.2443 17.6131C72.4525 17.6627 72.669 17.6657 72.8785 17.6219C73.0194 17.593 73.1626 17.5771 73.3063 17.5742C74.4465 17.5742 75.2212 17.948 75.6324 18.6853C76.0436 19.4226 76.243 20.4776 76.243 21.8483V29.0944C76.243 30.8334 76.9498 31.7036 78.3635 31.705C78.6568 31.7167 78.9492 31.6633 79.2195 31.5488C79.4899 31.4343 79.7316 31.2614 79.9273 31.0425C80.3191 30.6022 80.5157 29.9528 80.5171 29.0944V20.8763C80.5226 20.1431 80.4712 19.4106 80.3634 18.6853C80.2665 18.0783 80.0596 17.4942 79.7529 16.9615V16.9615Z" fill="#5061E2"/>
<path d="M98.8805 23.8733C98.5244 23.7184 98.1226 23.705 97.757 23.836C97.4237 23.9104 97.1286 24.103 96.9262 24.378C96.5607 25.0011 96.2596 25.5203 96.0228 25.8962C95.7794 26.2851 95.508 26.6558 95.2108 27.0052C94.9168 27.3536 94.5724 27.656 94.1889 27.9024C93.7877 28.1552 93.3528 28.3503 92.8971 28.4819C92.1926 28.7019 91.4411 28.7242 90.7248 28.5462C89.9786 28.3483 89.3038 27.9429 88.7788 27.377C88.6708 27.2648 88.5711 27.1423 88.4755 27.0198C88.468 27.0055 88.4597 26.9916 88.4506 26.9782C88.1228 26.5508 87.8577 26.0788 87.6635 25.5764C86.8182 23.8401 86.6064 22.3822 86.6251 21.3334C86.6073 20.7805 86.6831 20.2286 86.8494 19.701L86.8618 19.6594C86.8618 19.6324 86.8805 19.6034 86.8909 19.5764C86.9013 19.5494 86.9054 19.5348 86.9054 19.5348C86.9449 19.4372 86.9844 19.3396 87.0301 19.2461C87.2438 18.8022 87.5507 18.4095 87.9299 18.0948C88.309 17.7801 88.7516 17.5509 89.2274 17.4227C90.299 17.1001 91.2682 17.188 92.1349 17.6864C93.0017 18.1849 93.694 19.1208 94.2118 20.4943L89.8504 21.8069C89.551 21.8951 89.2974 22.0957 89.1425 22.3666C88.9877 22.6376 88.9437 22.958 89.0197 23.2607V23.2835C89.0601 23.4416 89.1321 23.5899 89.2312 23.7195C89.3303 23.8491 89.4545 23.9574 89.5965 24.0378C89.7384 24.1183 89.8951 24.1693 90.0572 24.1878C90.2193 24.2063 90.3835 24.1919 90.5399 24.1454L95.4828 22.6542C96.5566 22.3303 97.352 21.9273 97.8421 21.4393C98.3323 20.9512 98.434 20.1932 98.1246 19.1548C97.7699 18.0087 97.1337 16.9698 96.2741 16.133C95.3525 15.2238 94.1962 14.5889 92.9345 14.2991C91.5832 13.9668 90.1052 14.0436 88.5005 14.5296C87.3455 14.8611 86.2633 15.4071 85.3104 16.1392C84.4492 16.8049 83.7498 17.6569 83.2647 18.6314C82.7898 19.6139 82.5259 20.685 82.4901 21.7757C82.4519 22.9713 82.6147 24.1648 82.9719 25.3064C83.7486 27.8858 85.0958 29.7058 87.0134 30.7664C88.9311 31.827 91.2094 31.9613 93.8483 31.1693C94.8918 30.8732 95.8796 30.4081 96.7725 29.7924C97.4913 29.2993 98.1229 28.6901 98.6417 27.9896C99.0493 27.4425 99.3495 26.823 99.5264 26.1641C99.6657 25.6991 99.6807 25.2058 99.5701 24.7332C99.5266 24.5474 99.4421 24.3738 99.3228 24.2251C99.2035 24.0763 99.0524 23.9561 98.8805 23.8733V23.8733Z" fill="#5061E2"/>
<path d="M114.77 24.5214C114.36 24.5122 113.961 24.6609 113.657 24.9368C113.311 25.2626 113.023 25.6454 112.806 26.0687C112.416 26.7954 111.858 27.419 111.18 27.888C110.519 28.3009 109.751 28.5091 108.972 28.4861C108.365 28.4937 107.764 28.3682 107.211 28.1185C106.676 27.8694 106.208 27.4972 105.844 27.0323C105.448 26.5179 105.156 25.9319 104.982 25.3065C104.776 24.5826 104.676 23.8327 104.685 23.0801C104.685 21.3632 105.072 20.0098 105.844 19.0199C106.198 18.5449 106.662 18.1619 107.195 17.9031C107.728 17.6443 108.315 17.5174 108.908 17.5328C109.679 17.5031 110.44 17.712 111.088 18.131C111.741 18.6215 112.298 19.2284 112.731 19.9212C112.952 20.2533 113.218 20.5525 113.522 20.8101C113.779 21.0004 114.092 21.0978 114.411 21.0863C114.927 21.0957 115.426 20.9035 115.803 20.5505C115.986 20.3866 116.132 20.1854 116.23 19.9604C116.329 19.7355 116.379 19.492 116.376 19.2462C116.352 18.6686 116.176 18.1076 115.865 17.6201C115.475 16.9875 114.974 16.4309 114.386 15.9773C113.676 15.4311 112.88 15.0065 112.031 14.7208C111.046 14.389 110.012 14.2247 108.972 14.2348C107.182 14.2348 105.642 14.6038 104.353 15.3418C103.076 16.0662 102.047 17.1583 101.4 18.4757C100.694 19.9291 100.343 21.5292 100.376 23.1445C100.376 25.7419 101.119 27.8132 102.606 29.3584C104.093 30.9036 106.163 31.6761 108.816 31.6761C109.956 31.692 111.091 31.5222 112.176 31.1735C113.079 30.8906 113.919 30.4396 114.654 29.8444C115.246 29.3652 115.739 28.7764 116.108 28.1102C116.404 27.5855 116.568 26.9968 116.586 26.3947C116.576 25.9208 116.391 25.4674 116.066 25.1216C115.909 24.9315 115.71 24.779 115.486 24.6752C115.262 24.5713 115.018 24.5188 114.77 24.5214V24.5214Z" fill="#5061E2"/>
<path d="M127.57 20.7248L129.801 18.567C130.965 17.5203 131.548 16.6826 131.549 16.054C131.555 15.8144 131.511 15.5763 131.419 15.3551C131.326 15.1339 131.188 14.9347 131.014 14.7705C130.677 14.472 130.25 14.2939 129.801 14.2642C129.351 14.2345 128.905 14.3549 128.532 14.6065C128.041 14.9982 127.583 15.4288 127.161 15.8941L122.339 20.9554V10.5504C122.339 9.67189 122.145 9.00939 121.755 8.55664C121.561 8.33291 121.319 8.15596 121.047 8.03906C120.775 7.92216 120.481 7.86835 120.185 7.88166C119.882 7.8666 119.579 7.92679 119.305 8.05688C119.031 8.18697 118.793 8.38291 118.613 8.62724C118.249 9.12568 118.064 9.85051 118.064 10.8017V29.0945C118.064 29.9516 118.253 30.6009 118.629 31.0426C118.822 31.263 119.062 31.4371 119.331 31.5518C119.601 31.6666 119.892 31.7189 120.185 31.7051C120.468 31.7043 120.747 31.6441 121.006 31.5286C121.264 31.413 121.495 31.2447 121.684 31.0343C122.121 30.5899 122.339 29.9523 122.339 29.1278V25.7155L123.46 24.6563L127.57 20.7248Z" fill="#5061E2"/>
<path d="M131.925 27.5721L129.765 24.1764C129.606 23.9265 129.393 23.7151 129.142 23.5572C128.891 23.3993 128.608 23.2989 128.313 23.2632C128.019 23.2275 127.721 23.2573 127.439 23.3505C127.158 23.4438 126.9 23.5982 126.685 23.8026C126.356 24.1189 126.143 24.5381 126.084 24.9911C126.024 25.4441 126.121 25.9039 126.357 26.2948L128.449 29.7382C128.78 30.2868 129.163 30.8022 129.593 31.2771C129.755 31.4264 129.947 31.5412 130.155 31.6148C130.363 31.6883 130.583 31.719 130.804 31.705C131.077 31.7159 131.349 31.6688 131.602 31.5668C131.856 31.4648 132.085 31.3101 132.274 31.1131C132.664 30.6708 132.864 30.0924 132.831 29.5035C132.826 29.2362 132.754 28.9742 132.623 28.7413C132.484 28.4734 132.249 28.083 131.925 27.5721Z" fill="#5061E2"/>
<path d="M182.633 15.9437H183.35V17.9374H183.58V15.9437H184.297V15.709H182.633V15.9437Z" fill="#5061E2"/>
<path d="M186.484 15.709L185.612 17.5698L184.744 15.709H184.544V17.9374H184.777V16.332L185.524 17.9374H185.697L186.453 16.33V17.9374H186.687V15.709H186.484Z" fill="#5061E2"/>
<path d="M88.4756 27.0237L88.4445 26.9863C88.4555 26.9982 88.4659 27.0107 88.4756 27.0237V27.0237Z" fill="#5061E2"/>
<path d="M181.871 24.1392C181.515 23.9846 181.114 23.9705 180.748 24.0998C180.415 24.1758 180.12 24.3689 179.917 24.6439C179.551 25.2766 179.25 25.7827 179.013 26.1621C178.77 26.551 178.499 26.9216 178.201 27.2711C177.907 27.619 177.563 27.9214 177.18 28.1683C176.778 28.4203 176.343 28.6153 175.888 28.7477C175.183 28.9678 174.432 28.99 173.715 28.8121C172.97 28.6133 172.295 28.208 171.769 27.6428C171.661 27.5307 171.562 27.4082 171.466 27.2856C171.459 27.2713 171.45 27.2575 171.441 27.2441C171.114 26.8164 170.849 26.3444 170.654 25.8422C169.809 24.106 169.597 22.648 169.616 21.5992C169.597 21.0463 169.673 20.4942 169.84 19.9668L169.853 19.9253C169.863 19.8983 169.871 19.8692 169.882 19.8422C169.892 19.8152 169.896 19.8007 169.896 19.8007C169.936 19.7031 169.975 19.6055 170.021 19.512C170.234 19.068 170.541 18.6753 170.921 18.3607C171.3 18.046 171.742 17.8168 172.218 17.6885C173.29 17.3673 174.259 17.4552 175.126 17.9523C175.992 18.4494 176.685 19.3853 177.202 20.7602L172.841 22.0728C172.541 22.1605 172.287 22.361 172.133 22.6321C171.978 22.9032 171.934 23.2238 172.01 23.5265V23.5494C172.051 23.7075 172.123 23.8557 172.222 23.9853C172.321 24.1149 172.445 24.2232 172.587 24.3037C172.729 24.3842 172.886 24.4352 173.048 24.4537C173.21 24.4721 173.374 24.4577 173.531 24.4113L178.474 22.9201C179.547 22.5961 180.343 22.1932 180.833 21.7052C181.323 21.2171 181.425 20.4591 181.115 19.4206C180.76 18.2749 180.124 17.2362 179.265 16.3988C178.336 15.4801 177.168 14.8404 175.894 14.5525C174.541 14.2202 173.063 14.2971 171.46 14.783C170.305 15.1136 169.222 15.6597 168.27 16.3926C167.41 17.0553 166.711 17.9037 166.224 18.8744C165.749 19.857 165.485 20.928 165.45 22.0188C165.41 23.2178 165.573 24.4149 165.931 25.5598C166.708 28.1392 168.055 29.9592 169.973 31.0198C171.891 32.0804 174.169 32.2147 176.808 31.4227C177.851 31.1249 178.838 30.6599 179.732 30.0458C180.451 29.5535 181.083 28.9441 181.601 28.2431C182.01 27.6966 182.311 27.077 182.488 26.4175C182.627 25.9525 182.642 25.4592 182.532 24.9866C182.49 24.8058 182.409 24.6364 182.295 24.4901C182.181 24.3437 182.036 24.224 181.871 24.1392V24.1392Z" fill="#5061E2"/>
<path d="M170.035 27.0237L170.004 26.9863C170.014 26.9994 170.024 27.0118 170.035 27.0237V27.0237Z" fill="#5061E2"/>
<path d="M32.7062 21.8818C31.1631 20.536 29.1942 20.0251 27.0115 20.4094C25.5701 20.6648 24.2036 21.4478 22.8827 22.2162C21.5286 22.9971 20.2514 23.7365 18.9367 23.9421C18.7062 23.9691 18.5712 23.9795 18.3988 23.9878H18.2908C18.0561 24.0002 17.8339 24.0127 17.6179 24.0023C17.4871 24.0003 17.3567 23.9892 17.2275 23.9691C17.1423 23.9566 17.0468 23.94 16.9429 23.9338C15.6117 23.7261 14.2825 22.9431 12.9969 22.1934C11.8235 21.508 10.6106 20.7977 9.35831 20.4883C7.07378 19.9213 4.81833 20.4281 3.15893 21.8756C-0.323934 24.914 -0.089255 30.4509 0.0976609 34.8995C0.141275 35.9379 0.182815 36.9016 0.178661 37.7925C0.163689 38.1711 0.252526 38.5465 0.43556 38.8781C0.618594 39.2098 0.888852 39.4851 1.21708 39.6742C1.58971 39.8811 2.00891 39.9897 2.43515 39.9897C2.86138 39.9897 3.28059 39.8811 3.65322 39.6742C3.98486 39.4862 4.25884 39.2112 4.44552 38.8788C4.6322 38.5465 4.72448 38.1694 4.71241 37.7884C4.71241 37.2401 4.68334 36.5423 4.64595 35.7406C4.4985 32.5174 4.25135 27.1238 6.29496 25.4685C6.94917 24.939 7.7986 24.8206 8.88894 25.1051C10.2908 25.4727 11.4663 26.0978 12.6023 26.7022C13.5258 27.2308 14.4947 27.6756 15.4975 28.0314L15.6221 28.0708C15.7291 28.1022 15.8344 28.139 15.9377 28.1809C16.0942 28.2454 16.2571 28.2927 16.4237 28.3221C18.3212 28.6896 20.286 28.4551 22.0437 27.6513C22.7616 27.3184 23.4555 26.936 24.1205 26.507C25.0821 25.9192 25.9897 25.3647 26.9803 25.1051C28.0852 24.8164 28.945 24.9369 29.6034 25.4706C31.6408 27.1321 31.3812 32.4966 31.2275 35.7074C31.1901 36.5257 31.1548 37.2339 31.1568 37.7842C31.1568 39.238 32.3053 39.9836 33.4414 39.9836C34.5608 39.9836 35.6906 39.2193 35.6844 37.7801C35.6844 36.887 35.7217 35.9109 35.7654 34.8829C35.9564 30.4551 36.189 24.9203 32.7062 21.8818Z" fill="#5061E2"/>
<path d="M18.4154 16.0372C17.0538 16.1123 15.7083 15.7135 14.6076 14.9086C13.5069 14.1037 12.7189 12.9424 12.3777 11.6222C12.0365 10.302 12.1632 8.90433 12.7361 7.66691C13.309 6.42949 14.2928 5.42871 15.5202 4.83473C16.2515 4.47056 17.0522 4.26712 17.8686 4.23811C18.685 4.20909 19.4981 4.35517 20.2534 4.66651C20.6656 4.83403 21.1204 4.86637 21.5523 4.75888C21.9841 4.6514 22.3706 4.40962 22.6563 4.06838L22.6833 4.03723C22.8989 3.78157 23.0507 3.47838 23.1262 3.15259C23.2017 2.8268 23.1988 2.48774 23.1177 2.1633C23.0366 1.83886 22.8796 1.53831 22.6597 1.2864C22.4397 1.03448 22.1631 0.838395 21.8525 0.714276C20.2497 0.0734343 18.5098 -0.147248 16.7978 0.0731724C15.0857 0.293592 13.4584 0.947804 12.0702 1.97373C10.682 2.99966 9.57901 4.36327 8.86579 5.93519C8.15257 7.50711 7.85282 9.23519 7.99499 10.9555C8.13717 12.6758 8.71654 14.3312 9.67814 15.7647C10.6397 17.1982 11.9517 18.3623 13.4894 19.1464C15.0272 19.9305 16.7399 20.3087 18.4648 20.245C20.1898 20.1814 21.8699 19.6781 23.3458 18.7828C23.6328 18.6085 23.8743 18.3684 24.0502 18.0823C24.2261 17.7962 24.3313 17.4724 24.3573 17.1376C24.3833 16.8028 24.3292 16.4666 24.1995 16.1568C24.0699 15.847 23.8684 15.5725 23.6116 15.356C23.2734 15.0717 22.8541 14.9012 22.4134 14.8687C21.9727 14.8363 21.533 14.9436 21.1568 15.1753C20.3298 15.6881 19.387 15.9845 18.4154 16.0372V16.0372Z" fill="#5061E2"/>
</g>
<defs>
<clipPath id="clip0_86_1335">
<rect width="186.687" height="40" fill="white"/>
</clipPath>
</defs>
</svg>
