<svg width="32" height="32" viewBox="0 0 32 32" fill="none" xmlns="http://www.w3.org/2000/svg">
<path d="M29.3333 21.587C29.3333 26.4403 26.44 29.3337 21.5866 29.3337H20C19.2666 29.3337 18.6666 28.7337 18.6666 28.0003V20.307C18.6666 19.947 18.9599 19.6403 19.3199 19.6403L21.6666 19.6003C21.8533 19.587 22.0133 19.4537 22.0533 19.267L22.52 16.7203C22.56 16.4803 22.3733 16.2537 22.12 16.2537L19.2799 16.2937C18.9066 16.2937 18.6133 16.0003 18.6 15.6403L18.5466 12.3737C18.5466 12.1603 18.7199 11.9737 18.9466 11.9737L22.1466 11.9203C22.3733 11.9203 22.5466 11.747 22.5466 11.5203L22.4933 8.32031C22.4933 8.09365 22.32 7.92033 22.0933 7.92033L18.4933 7.97367C16.28 8.01367 14.52 9.82699 14.56 12.0403L14.6266 15.707C14.64 16.0803 14.3466 16.3737 13.9733 16.387L12.3733 16.4137C12.1466 16.4137 11.9733 16.587 11.9733 16.8136L12.0133 19.347C12.0133 19.5737 12.1866 19.747 12.4133 19.747L14.0133 19.7203C14.3866 19.7203 14.6799 20.0137 14.6933 20.3737L14.8133 27.9737C14.8266 28.7203 14.2266 29.3337 13.4799 29.3337H10.4133C5.55996 29.3337 2.66663 26.4403 2.66663 21.5736V10.4137C2.66663 5.56032 5.55996 2.66699 10.4133 2.66699H21.5866C26.44 2.66699 29.3333 5.56032 29.3333 10.4137V21.587V21.587Z" fill="#5061E2"/>
</svg>
