<svg width="11" height="10" viewBox="0 0 11 10" fill="none" xmlns="http://www.w3.org/2000/svg">
<path d="M5.13302 0.846292C5.27228 0.52514 5.72772 0.525141 5.86698 0.846293L6.89961 3.22763C6.95757 3.36129 7.08362 3.45287 7.22865 3.46669L9.81253 3.7129C10.161 3.74611 10.3017 4.17926 10.0393 4.41095L8.09366 6.12891C7.98445 6.22534 7.9363 6.37351 7.96798 6.51572L8.53228 9.04922C8.60838 9.3909 8.23992 9.6586 7.93849 9.48063L5.70336 8.16106C5.5779 8.08699 5.4221 8.08699 5.29664 8.16106L3.06152 9.48063C2.76008 9.6586 2.39162 9.3909 2.46773 9.04922L3.03202 6.51572C3.0637 6.37351 3.01555 6.22534 2.90634 6.12891L0.960658 4.41095C0.698258 4.17926 0.838997 3.74611 1.18747 3.7129L3.77135 3.46669C3.91638 3.45287 4.04243 3.36129 4.10039 3.22763L5.13302 0.846292Z" fill="#F3AE00"/>
</svg>
