<svg width="126" height="38" viewBox="0 0 126 38" fill="none" xmlns="http://www.w3.org/2000/svg">
<g clip-path="url(#clip0_86_1406)">
<rect width="126" height="38" rx="5" fill="white"/>
<path d="M121.333 37.5H4.66573C2.38364 37.5 0.5 35.5949 0.5 33.25V4.75C0.5 2.40513 2.38364 0.5 4.66573 0.5H121.333C123.616 0.5 125.5 2.40526 125.5 4.75V33.25C125.5 35.5947 123.616 37.5 121.333 37.5Z" fill="white" stroke="black"/>
<path d="M9.69385 7.22194C9.42225 7.51454 9.26172 7.96864 9.26172 8.55669V29.5669C9.26172 30.1559 9.42225 30.609 9.69385 30.9016L9.76292 30.97L21.326 19.2005V19.0618V18.9231L9.76292 7.15259L9.69385 7.22194Z" fill="url(#paint0_linear_86_1406)"/>
<path d="M25.1806 23.1261L21.3269 19.2016V19.0629V18.9242L25.1816 15.0007L25.2684 15.0511L29.8352 17.6921C31.14 18.4464 31.14 19.6804 29.8352 20.4357L25.2684 23.0767L25.1806 23.1261Z" fill="url(#paint1_linear_86_1406)"/>
<path d="M25.2684 23.0746L21.3269 19.0618L9.69385 30.9016C10.1241 31.3652 10.8334 31.4222 11.6333 30.9596L25.2684 23.0746Z" fill="url(#paint2_linear_86_1406)"/>
<path d="M25.2684 15.0491L11.6343 7.1641C10.8344 6.70145 10.1251 6.7594 9.69482 7.22205L21.327 19.0619L25.2684 15.0491Z" fill="url(#paint3_linear_86_1406)"/>
<path opacity="0.2" d="M25.1816 22.9863L11.6342 30.821C10.8764 31.2589 10.1988 31.2304 9.76385 30.8314L9.69385 30.9027L9.76291 30.9711C10.1978 31.3701 10.8754 31.3995 11.6333 30.9606L25.2674 23.0756L25.1816 22.9863Z" fill="black"/>
<path opacity="0.12" d="M9.69385 30.763C9.42225 30.4704 9.26172 30.0163 9.26172 29.4282V29.5669C9.26172 30.155 9.42225 30.6091 9.69385 30.9017L9.76385 30.8304L9.69385 30.763Z" fill="black"/>
<path opacity="0.12" d="M29.8352 20.2949L25.1816 22.9862L25.2684 23.0746L29.8352 20.4336C30.4876 20.0564 30.8134 19.5596 30.8134 19.0627C30.7583 19.5121 30.426 19.9529 29.8352 20.2949Z" fill="black"/>
<path opacity="0.25" d="M11.6333 7.30277L29.8343 17.8288C30.426 18.1708 30.7573 18.6116 30.8124 19.0619C30.8124 18.565 30.4867 18.0672 29.8343 17.6901L11.6333 7.16407C10.3285 6.40977 9.26172 7.03582 9.26172 8.55677V8.69642C9.26172 7.17547 10.3295 6.54847 11.6333 7.30277Z" fill="white"/>
<path d="M63.5545 20.6197C61.3593 20.6197 59.5701 22.3183 59.5701 24.66C59.5701 26.9866 61.3593 28.7004 63.5545 28.7004C65.7497 28.7004 67.5389 26.9866 67.5389 24.66C67.5389 22.3183 65.7497 20.6197 63.5545 20.6197ZM63.5545 27.1091C62.3514 27.1091 61.3135 26.0993 61.3135 24.66C61.3135 23.2056 62.3514 22.2109 63.5545 22.2109C64.7575 22.2109 65.7945 23.2056 65.7945 24.66C65.7945 26.0983 64.7575 27.1091 63.5545 27.1091ZM54.8614 20.6197C52.6662 20.6197 50.877 22.3183 50.877 24.66C50.877 26.9866 52.6662 28.7004 54.8614 28.7004C57.0566 28.7004 58.8458 26.9866 58.8458 24.66C58.8467 22.3183 57.0566 20.6197 54.8614 20.6197ZM54.8614 27.1091C53.6583 27.1091 52.6214 26.0993 52.6214 24.66C52.6214 23.2056 53.6593 22.2109 54.8614 22.2109C56.0645 22.2109 57.1014 23.2056 57.1014 24.66C57.1023 26.0983 56.0645 27.1091 54.8614 27.1091ZM44.5219 21.8594V23.5732H48.5521C48.4317 24.5375 48.1162 25.2414 47.6346 25.7316C47.0485 26.3282 46.131 26.9866 44.5219 26.9866C42.0411 26.9866 40.1017 24.9507 40.1017 22.4256C40.1017 19.9005 42.0411 17.8647 44.5219 17.8647C45.8603 17.8647 46.8375 18.4005 47.559 19.0892L48.7471 17.8799C47.7401 16.9004 46.4017 16.1499 44.5219 16.1499C41.1237 16.1499 38.2667 18.9657 38.2667 22.4247C38.2667 25.8836 41.1237 28.6994 44.5219 28.6994C46.3559 28.6994 47.7401 28.0876 48.8227 26.9391C49.9353 25.8067 50.2815 24.2145 50.2815 22.9291C50.2815 22.5311 50.2517 22.1634 50.191 21.8575H44.5219V21.8594ZM86.8094 23.1904C86.479 22.2869 85.471 20.6187 83.4111 20.6187C81.3662 20.6187 79.6675 22.2565 79.6675 24.6591C79.6675 26.9239 81.3513 28.6994 83.6071 28.6994C85.4262 28.6994 86.479 27.567 86.9149 26.9087L85.5615 25.99C85.1107 26.6636 84.4938 27.1072 83.6071 27.1072C82.7195 27.1072 82.0886 26.694 81.6826 25.8827L86.9905 23.6483L86.8094 23.1904ZM81.3961 24.5375C81.3513 22.9766 82.5842 22.1805 83.4709 22.1805C84.1625 22.1805 84.7486 22.532 84.9446 23.0374L81.3961 24.5375ZM77.0803 28.4553H78.8247V16.5793H77.0803V28.4553ZM74.2234 21.5222H74.1637C73.7726 21.0481 73.0213 20.6187 72.0739 20.6187C70.0887 20.6187 68.2697 22.3943 68.2697 24.6743C68.2697 26.9391 70.0887 28.6994 72.0739 28.6994C73.0213 28.6994 73.7726 28.271 74.1637 27.7808H74.2234V28.3622C74.2234 29.9078 73.4114 30.7343 72.1029 30.7343C71.0351 30.7343 70.3734 29.9534 70.1027 29.296L68.5842 29.9392C69.0201 31.0108 70.1783 32.3265 72.1029 32.3265C74.1478 32.3265 75.8773 31.102 75.8773 28.118V20.8638H74.2234V21.5222ZM72.2242 27.1091C71.0211 27.1091 70.0141 26.0841 70.0141 24.6752C70.0141 23.2521 71.0211 22.2109 72.2242 22.2109C73.4123 22.2109 74.3438 23.2512 74.3438 24.6752C74.3438 26.0831 73.4123 27.1091 72.2242 27.1091ZM94.9798 16.5793H90.8069V28.4553H92.5475V23.9561H94.9789C96.909 23.9561 98.8065 22.5339 98.8065 20.2682C98.8065 18.0024 96.9099 16.5793 94.9798 16.5793ZM95.0246 22.3031H92.5475V18.2323H95.0246C96.3266 18.2323 97.0658 19.3296 97.0658 20.2682C97.0658 21.1878 96.3266 22.3031 95.0246 22.3031ZM105.788 20.5978C104.527 20.5978 103.221 21.1631 102.681 22.4161L104.227 23.0735C104.558 22.4161 105.173 22.2024 105.819 22.2024C106.719 22.2024 107.635 22.7524 107.65 23.73V23.8525C107.334 23.6692 106.659 23.3937 105.834 23.3937C104.168 23.3937 102.471 24.3256 102.471 26.0679C102.471 27.6573 103.837 28.6804 105.368 28.6804C106.539 28.6804 107.184 28.1456 107.589 27.5195H107.649V28.4363H109.33V23.8829C109.33 21.7739 107.784 20.5978 105.788 20.5978ZM105.577 27.1063C105.007 27.1063 104.21 26.8156 104.21 26.0983C104.21 25.1816 105.202 24.8301 106.057 24.8301C106.822 24.8301 107.182 24.9982 107.648 25.2272C107.514 26.3273 106.583 27.1063 105.577 27.1063ZM115.454 20.8572L113.458 26.0062H113.398L111.327 20.8572H109.451L112.558 28.0534L110.787 32.0567H112.603L117.392 20.8572H115.454ZM99.7678 28.4553H101.509V16.5793H99.7678V28.4553Z" fill="black"/>
<path fill-rule="evenodd" clip-rule="evenodd" d="M68.7018 11.6128C68.1511 12.1894 67.4669 12.4763 66.6484 12.4763C65.8299 12.4763 65.1458 12.1885 64.596 11.6128C64.0453 11.0371 63.7709 10.3322 63.7709 9.499C63.7709 8.66585 64.0453 7.96095 64.596 7.38525C65.1458 6.8086 65.8299 6.52075 66.6484 6.52075C67.4623 6.52075 68.1455 6.8105 68.698 7.38905C69.2506 7.9676 69.5268 8.6706 69.5268 9.499C69.5268 10.3331 69.2515 11.038 68.7018 11.6128ZM65.1271 11.1359C65.5415 11.5634 66.0483 11.7762 66.6484 11.7762C67.2485 11.7762 67.7554 11.5624 68.1698 11.1359C68.5842 10.7084 68.7923 10.1631 68.7923 9.49995C68.7923 8.83685 68.5842 8.2906 68.1698 7.86405C67.7563 7.43655 67.2485 7.22375 66.6484 7.22375C66.0483 7.22375 65.5415 7.4375 65.1271 7.86405C64.7136 8.29155 64.5055 8.83685 64.5055 9.49995C64.5055 10.1631 64.7136 10.7084 65.1271 11.1359Z" fill="black"/>
<path d="M44.2568 9.7308C44.2568 10.5269 44.0253 11.1606 43.5615 11.6337C43.0351 12.1961 42.3481 12.4773 41.5044 12.4773C40.6961 12.4773 40.0083 12.1923 39.4436 11.6223C38.878 11.0513 38.5952 10.3445 38.5952 9.5009C38.5952 8.65635 38.878 7.94955 39.4436 7.37955C40.0083 6.8086 40.6961 6.5236 41.5044 6.5236C41.9057 6.5236 42.2893 6.6034 42.6533 6.76205C43.0183 6.92165 43.3104 7.1335 43.5288 7.39855L43.0369 7.90015C42.6664 7.4489 42.1559 7.22375 41.5035 7.22375C40.9136 7.22375 40.404 7.43465 39.9737 7.85645C39.5444 8.27825 39.3297 8.82545 39.3297 9.49995C39.3297 10.1745 39.5444 10.7217 39.9747 11.1444C40.4049 11.5662 40.9145 11.7771 41.5044 11.7771C42.1297 11.7771 42.6515 11.5653 43.0687 11.1406C43.3393 10.8642 43.4961 10.4794 43.5381 9.98635H41.5044V9.30045H44.2176C44.2447 9.4496 44.2568 9.59305 44.2568 9.7308Z" fill="black"/>
<path d="M48.5595 7.3501H46.0096V9.157H48.3093V9.84195H46.0096V11.6489H48.5595V12.35H45.29V6.64995H48.5595V7.3501Z" fill="black"/>
<path d="M50.8732 12.35H51.5928V7.3501H53.1571V6.64995H49.309V7.3501H50.8732V12.35Z" fill="black"/>
<path d="M55.9421 12.35V6.64995H56.6617V12.35H55.9421Z" fill="black"/>
<path d="M59.1323 12.35H59.8519V7.3501H61.4162V6.64995H57.568V7.3501H59.1323V12.35Z" fill="black"/>
<path d="M70.5367 6.64995V12.35H71.2544V8.79885L71.2236 7.70065H71.2544L74.102 12.35H74.8533V6.64995H74.1337V9.98635L74.1645 11.0846H74.1337L71.4121 6.64995H70.5367Z" fill="black"/>
<path fill-rule="evenodd" clip-rule="evenodd" d="M68.7018 11.6128C68.1511 12.1894 67.4669 12.4763 66.6484 12.4763C65.8299 12.4763 65.1458 12.1885 64.596 11.6128C64.0453 11.0371 63.7709 10.3322 63.7709 9.499C63.7709 8.66585 64.0453 7.96095 64.596 7.38525C65.1458 6.8086 65.8299 6.52075 66.6484 6.52075C67.4623 6.52075 68.1455 6.8105 68.698 7.38905C69.2506 7.9676 69.5268 8.6706 69.5268 9.499C69.5268 10.3331 69.2515 11.038 68.7018 11.6128ZM65.1271 11.1359C65.5415 11.5634 66.0483 11.7762 66.6484 11.7762C67.2485 11.7762 67.7554 11.5624 68.1698 11.1359C68.5842 10.7084 68.7923 10.1631 68.7923 9.49995C68.7923 8.83685 68.5842 8.2906 68.1698 7.86405C67.7563 7.43655 67.2485 7.22375 66.6484 7.22375C66.0483 7.22375 65.5415 7.4375 65.1271 7.86405C64.7136 8.29155 64.5055 8.83685 64.5055 9.49995C64.5055 10.1631 64.7136 10.7084 65.1271 11.1359Z" stroke="black" stroke-width="0.2" stroke-miterlimit="10"/>
<path d="M44.2568 9.7308C44.2568 10.5269 44.0253 11.1606 43.5615 11.6337C43.0351 12.1961 42.3481 12.4773 41.5044 12.4773C40.6961 12.4773 40.0083 12.1923 39.4436 11.6223C38.878 11.0513 38.5952 10.3445 38.5952 9.5009C38.5952 8.65635 38.878 7.94955 39.4436 7.37955C40.0083 6.8086 40.6961 6.5236 41.5044 6.5236C41.9057 6.5236 42.2893 6.6034 42.6533 6.76205C43.0183 6.92165 43.3104 7.1335 43.5288 7.39855L43.0369 7.90015C42.6664 7.4489 42.1559 7.22375 41.5035 7.22375C40.9136 7.22375 40.404 7.43465 39.9737 7.85645C39.5444 8.27825 39.3297 8.82545 39.3297 9.49995C39.3297 10.1745 39.5444 10.7217 39.9747 11.1444C40.4049 11.5662 40.9145 11.7771 41.5044 11.7771C42.1297 11.7771 42.6515 11.5653 43.0687 11.1406C43.3393 10.8642 43.4961 10.4794 43.5381 9.98635H41.5044V9.30045H44.2176C44.2447 9.4496 44.2568 9.59305 44.2568 9.7308Z" stroke="black" stroke-width="0.2" stroke-miterlimit="10"/>
<path d="M48.5595 7.3501H46.0096V9.157H48.3093V9.84195H46.0096V11.6489H48.5595V12.35H45.29V6.64995H48.5595V7.3501Z" stroke="black" stroke-width="0.2" stroke-miterlimit="10"/>
<path d="M50.8732 12.35H51.5928V7.3501H53.1571V6.64995H49.309V7.3501H50.8732V12.35Z" stroke="black" stroke-width="0.2" stroke-miterlimit="10"/>
<path d="M55.9421 12.35V6.64995H56.6617V12.35H55.9421Z" stroke="black" stroke-width="0.2" stroke-miterlimit="10"/>
<path d="M59.1323 12.35H59.8519V7.3501H61.4162V6.64995H57.568V7.3501H59.1323V12.35Z" stroke="black" stroke-width="0.2" stroke-miterlimit="10"/>
<path d="M70.5367 6.64995V12.35H71.2544V8.79885L71.2236 7.70065H71.2544L74.102 12.35H74.8533V6.64995H74.1337V9.98635L74.1645 11.0846H74.1337L71.4121 6.64995H70.5367Z" stroke="black" stroke-width="0.2" stroke-miterlimit="10"/>
</g>
<defs>
<linearGradient id="paint0_linear_86_1406" x1="20.3008" y1="8.33515" x2="4.36003" y2="23.9963" gradientUnits="userSpaceOnUse">
<stop stop-color="#00A0FF"/>
<stop offset="0.0066" stop-color="#00A1FF"/>
<stop offset="0.2601" stop-color="#00BEFF"/>
<stop offset="0.5122" stop-color="#00D2FF"/>
<stop offset="0.7604" stop-color="#00DFFF"/>
<stop offset="1" stop-color="#00E3FF"/>
</linearGradient>
<linearGradient id="paint1_linear_86_1406" x1="31.5332" y1="19.0625" x2="8.94941" y2="19.0625" gradientUnits="userSpaceOnUse">
<stop stop-color="#FFE000"/>
<stop offset="0.4087" stop-color="#FFBD00"/>
<stop offset="0.7754" stop-color="#FFA500"/>
<stop offset="1" stop-color="#FF9C00"/>
</linearGradient>
<linearGradient id="paint2_linear_86_1406" x1="23.1263" y1="21.2422" x2="1.50929" y2="42.48" gradientUnits="userSpaceOnUse">
<stop stop-color="#FF3A44"/>
<stop offset="1" stop-color="#C31162"/>
</linearGradient>
<linearGradient id="paint3_linear_86_1406" x1="6.76528" y1="0.228432" x2="16.4182" y2="9.71195" gradientUnits="userSpaceOnUse">
<stop stop-color="#32A071"/>
<stop offset="0.0685" stop-color="#2DA771"/>
<stop offset="0.4762" stop-color="#15CF74"/>
<stop offset="0.8009" stop-color="#06E775"/>
<stop offset="1" stop-color="#00F076"/>
</linearGradient>
<clipPath id="clip0_86_1406">
<rect width="126" height="38" rx="5" fill="white"/>
</clipPath>
</defs>
</svg>
