<svg width="16" height="16" viewBox="0 0 16 16" fill="none" xmlns="http://www.w3.org/2000/svg">
<path d="M7.99996 7.16602C8.2761 7.16602 8.49996 7.38987 8.49996 7.66602V10.9993C8.49996 11.2755 8.2761 11.4993 7.99996 11.4993C7.72382 11.4993 7.49996 11.2755 7.49996 10.9993V7.66602C7.49996 7.38987 7.72382 7.16602 7.99996 7.16602Z" fill="#5F6369"/>
<path d="M7.99996 5.99935C8.36815 5.99935 8.66663 5.70087 8.66663 5.33268C8.66663 4.96449 8.36815 4.66602 7.99996 4.66602C7.63177 4.66602 7.33329 4.96449 7.33329 5.33268C7.33329 5.70087 7.63177 5.99935 7.99996 5.99935Z" fill="#5F6369"/>
<path fill-rule="evenodd" clip-rule="evenodd" d="M2.16663 7.99935C2.16663 4.77769 4.7783 2.16602 7.99996 2.16602C11.2216 2.16602 13.8333 4.77769 13.8333 7.99935C13.8333 11.221 11.2216 13.8327 7.99996 13.8327C4.7783 13.8327 2.16663 11.221 2.16663 7.99935ZM7.99996 3.16602C5.33058 3.16602 3.16663 5.32997 3.16663 7.99935C3.16663 10.6687 5.33058 12.8327 7.99996 12.8327C10.6693 12.8327 12.8333 10.6687 12.8333 7.99935C12.8333 5.32997 10.6693 3.16602 7.99996 3.16602Z" fill="#5F6369"/>
</svg>
