<svg width="16" height="19" viewBox="0 0 16 19" fill="none" xmlns="http://www.w3.org/2000/svg">
<path fill-rule="evenodd" clip-rule="evenodd" d="M15.7448 1.72392C15.844 0.532487 14.5091 -0.12625 13.5928 0.485876L13.2964 0.683886C8.77679 3.70313 4.54694 7.11045 0.65816 10.8647C-0.310596 11.7999 0.543675 13.2759 1.75249 13.1464L7.01885 12.5824C7.55504 12.525 8.04915 12.8132 8.25265 13.2623L10.3813 17.9593C10.8954 19.0937 12.5888 18.9882 12.9257 17.7643C14.3405 12.6252 15.2743 7.37299 15.7158 2.07142L15.7448 1.72392ZM14.2278 1.86561L14.221 1.94692C13.7982 7.02331 12.916 12.0539 11.5846 16.9807L9.6189 12.6431C9.13845 11.583 8.01504 10.9672 6.85913 11.091L2.05214 11.6058C5.77899 8.0473 9.8201 4.81008 14.1296 1.93117L14.2278 1.86561Z" fill="#5061E2"/>
</svg>
