<svg width="12" height="16" viewBox="0 0 12 16" fill="none" xmlns="http://www.w3.org/2000/svg">
<mask id="mask0_1747_8014" style="mask-type:alpha" maskUnits="userSpaceOnUse" x="0" y="9" width="12" height="7">
<path fill-rule="evenodd" clip-rule="evenodd" d="M0 9.87109H11.8799V15.4016H0V9.87109Z" fill="white"/>
</mask>
<g mask="url(#mask0_1747_8014)">
<path fill-rule="evenodd" clip-rule="evenodd" d="M5.94075 10.9961C2.745 10.9961 1.125 11.5451 1.125 12.6288C1.125 13.7223 2.745 14.2766 5.94075 14.2766C9.13575 14.2766 10.755 13.7276 10.755 12.6438C10.755 11.5503 9.13575 10.9961 5.94075 10.9961ZM5.94075 15.4016C4.4715 15.4016 0 15.4016 0 12.6288C0 10.1568 3.39075 9.87109 5.94075 9.87109C7.41 9.87109 11.88 9.87109 11.88 12.6438C11.88 15.1158 8.49 15.4016 5.94075 15.4016Z" fill="#5061E2"/>
</g>
<mask id="mask1_1747_8014" style="mask-type:alpha" maskUnits="userSpaceOnUse" x="1" y="0" width="9" height="9">
<path fill-rule="evenodd" clip-rule="evenodd" d="M1.95752 0.5H9.92254V8.46395H1.95752V0.5Z" fill="white"/>
</mask>
<g mask="url(#mask1_1747_8014)">
<path fill-rule="evenodd" clip-rule="evenodd" d="M5.94059 1.57031C4.33484 1.57031 3.02834 2.87606 3.02834 4.48181C3.02309 6.08231 4.31984 7.38731 5.91884 7.39331L5.94059 7.92881V7.39331C7.54559 7.39331 8.85134 6.08681 8.85134 4.48181C8.85134 2.87606 7.54559 1.57031 5.94059 1.57031ZM5.94079 8.46425H5.91679C3.72529 8.4575 1.95004 6.67025 1.95754 4.48025C1.95754 2.2865 3.74404 0.5 5.94079 0.5C8.13679 0.5 9.92254 2.2865 9.92254 4.4825C9.92254 6.6785 8.13679 8.46425 5.94079 8.46425Z" fill="#5061E2"/>
</g>
</svg>
