<svg width="16" height="16" viewBox="0 0 16 16" fill="none" xmlns="http://www.w3.org/2000/svg">
<path fill-rule="evenodd" clip-rule="evenodd" d="M8.76978 2.23952C8.32237 2.00601 7.71611 2.00241 7.26512 2.23532C5.53648 3.12808 3.96857 4.1517 2.59458 5.28704C2.38211 5.46261 2.23133 5.71773 2.2339 6.01803C2.23646 6.31709 2.39032 6.56881 2.6015 6.74148C3.96407 7.8556 5.53327 8.88014 7.23027 9.76584C7.67768 9.99935 8.28394 10.003 8.73492 9.77004C10.4636 8.87728 12.0315 7.85366 13.4055 6.71832C13.6179 6.54275 13.7687 6.28763 13.7661 5.98733C13.7636 5.68827 13.6097 5.43655 13.3986 5.26388C12.036 4.14976 10.4668 3.12522 8.76978 2.23952ZM7.72399 3.12382C7.88377 3.04131 8.14623 3.04209 8.30709 3.12604C9.92665 3.97132 11.4189 4.94379 12.7117 5.99417C11.4112 7.06145 9.92337 8.03078 8.27605 8.88154C8.11628 8.96405 7.85382 8.96327 7.69296 8.87932C6.0734 8.03404 4.58113 7.06157 3.28831 6.01119C4.58885 4.94391 6.07668 3.97458 7.72399 3.12382Z" fill="#5F6369"/>
<path d="M14.1314 8.4647C14.2776 8.69894 14.2063 9.00738 13.972 9.15362L9.90055 11.6955C9.34806 12.0405 8.66259 12.2 7.99997 12.2C7.33734 12.2 6.65184 12.0406 6.09927 11.6958L2.07238 9.18262C1.83812 9.03641 1.76673 8.72798 1.91293 8.49372C2.05913 8.25946 2.36756 8.18807 2.60183 8.33427L6.62871 10.8474C6.99148 11.0738 7.48428 11.2 7.99991 11.2C8.51554 11.2 9.00829 11.0737 9.37097 10.8473L13.4425 8.30537C13.6767 8.15912 13.9851 8.23046 14.1314 8.4647Z" fill="#5F6369"/>
<path d="M14.1313 10.9678C14.2776 11.202 14.2063 11.5105 13.9721 11.6567L10.4462 13.8586C9.74107 14.299 8.85908 14.5061 7.99994 14.5062C7.1408 14.5062 6.25876 14.2992 5.55357 13.8589L2.07233 11.6857C1.83808 11.5395 1.76673 11.2311 1.91296 10.9968C2.05919 10.7626 2.36763 10.6912 2.60188 10.8375L6.08312 13.0107C6.59846 13.3324 7.28775 13.5062 7.99988 13.5062C8.71201 13.5061 9.40123 13.3322 9.91647 13.0105L13.4424 10.8085C13.6766 10.6623 13.9851 10.7336 14.1313 10.9678Z" fill="#5F6369"/>
</svg>
