<svg width="28" height="28" viewBox="0 0 28 28" fill="none" xmlns="http://www.w3.org/2000/svg">
<path d="M13.093 0.952963C13.4514 0.181231 14.5486 0.181231 14.907 0.952963L18.2987 8.25626C18.4444 8.57002 18.7419 8.78618 19.0853 8.8278L27.0793 9.79665C27.924 9.89903 28.263 10.9425 27.6398 11.5218L21.742 17.0043C21.4887 17.2399 21.375 17.5896 21.4416 17.9291L22.9904 25.8312C23.1541 26.6662 22.2665 27.3111 21.5229 26.8974L14.4862 22.9825C14.1839 22.8143 13.8161 22.8143 13.5138 22.9825L6.47711 26.8974C5.73355 27.3111 4.84594 26.6662 5.00961 25.8312L6.55844 17.9291C6.62498 17.5896 6.51134 17.2399 6.25797 17.0043L0.360206 11.5218C-0.263004 10.9425 0.0760305 9.89903 0.920742 9.79665L8.91469 8.8278C9.25811 8.78618 9.55563 8.57002 9.70134 8.25626L13.093 0.952963Z" fill="#D9D9D9"/>
</svg>
