<svg width="21" height="21" viewBox="0 0 21 21" fill="none" xmlns="http://www.w3.org/2000/svg">
<path d="M10.5 20C7.98044 20 5.56408 18.9991 3.78249 17.2175C2.00089 15.4359 1 13.0196 1 10.5C1 7.98044 2.00089 5.56408 3.78249 3.78249C5.56408 2.00089 7.98044 1 10.5 1V20Z" stroke="#5F6369" stroke-width="1.5" stroke-linecap="round" stroke-linejoin="round"/>
<path d="M10.5001 1C8.96557 2.04864 7.72397 3.47146 6.89278 5.13385C6.06159 6.79623 5.66829 8.6432 5.75009 10.5C5.66829 12.3568 6.06159 14.2038 6.89278 15.8662C7.72397 17.5285 8.96557 18.9514 10.5001 20" stroke="#5F6369" stroke-width="1.5" stroke-linecap="round" stroke-linejoin="round"/>
<path d="M10.5 7.42899H1.91504" stroke="#5F6369" stroke-width="1.5" stroke-linecap="round" stroke-linejoin="round"/>
<path d="M10.25 13.571H1.66504" stroke="#5F6369" stroke-width="1.5" stroke-linecap="round" stroke-linejoin="round"/>
<path d="M10.25 20C12.7696 20 15.1859 18.9991 16.9675 17.2175C18.7491 15.4359 19.75 13.0196 19.75 10.5C19.75 7.98044 18.7491 5.56408 16.9675 3.78249C15.1859 2.00089 12.7696 1 10.25 1V20Z" stroke="#5F6369" stroke-width="1.5" stroke-linecap="round" stroke-linejoin="round"/>
<path d="M10.2499 1C11.7844 2.04864 13.026 3.47146 13.8572 5.13385C14.6884 6.79623 15.0817 8.6432 14.9999 10.5C15.0817 12.3568 14.6884 14.2038 13.8572 15.8662C13.026 17.5285 11.7844 18.9514 10.2499 20" stroke="#5F6369" stroke-width="1.5" stroke-linecap="round" stroke-linejoin="round"/>
<path d="M10.25 7.42899H18.835" stroke="#5F6369" stroke-width="1.5" stroke-linecap="round" stroke-linejoin="round"/>
<path d="M10.5 13.571H19.085" stroke="#5F6369" stroke-width="1.5" stroke-linecap="round" stroke-linejoin="round"/>
</svg>
