<svg width="14" height="14" viewBox="0 0 14 14" fill="none" xmlns="http://www.w3.org/2000/svg">
<path d="M7.66663 4.83605C7.66663 5.20424 7.36815 5.50272 6.99996 5.50272C6.63177 5.50272 6.33329 5.20424 6.33329 4.83605C6.33329 4.46786 6.63177 4.16939 6.99996 4.16939C7.36815 4.16939 7.66663 4.46786 7.66663 4.83605Z" fill="#FF9900"/>
<path d="M6.99996 6.66939C7.2761 6.66939 7.49996 6.89324 7.49996 7.16939V10.5027C7.49996 10.7789 7.2761 11.0027 6.99996 11.0027C6.72382 11.0027 6.49996 10.7789 6.49996 10.5027V7.16939C6.49996 6.89324 6.72382 6.66939 6.99996 6.66939Z" fill="#FF9900"/>
<path fill-rule="evenodd" clip-rule="evenodd" d="M8.51352 1.49781C7.78554 0.432699 6.21435 0.432695 5.48637 1.49781L5.19842 1.9191C3.39439 4.55858 1.84442 7.363 0.569264 10.2948L0.509121 10.4331C0.0597508 11.4662 0.73866 12.6394 1.85836 12.7645C5.27544 13.1464 8.72445 13.1464 12.1415 12.7645C13.2612 12.6394 13.9401 11.4662 13.4908 10.4331L13.4306 10.2948C12.1555 7.36299 10.6055 4.55858 8.80147 1.91911L8.51352 1.49781ZM6.31196 2.06208C6.64286 1.57794 7.35703 1.57794 7.68793 2.06208L7.97588 2.48338C9.74428 5.07073 11.2636 7.81975 12.5136 10.6936L12.5738 10.8319C12.7547 11.2479 12.4813 11.7203 12.0305 11.7707C8.68719 12.1444 5.3127 12.1444 1.96943 11.7707C1.51856 11.7203 1.24519 11.2479 1.42614 10.8319L1.48628 10.6936C2.73625 7.81975 4.25561 5.07072 6.02401 2.48338L6.31196 2.06208Z" fill="#FF9900"/>
</svg>
