<svg width="28" height="28" viewBox="0 0 28 28" fill="none" xmlns="http://www.w3.org/2000/svg">
<path d="M27.3066 13.2133C26.8533 5.47993 19.8266 -0.480051 11.7333 0.853282C6.15997 1.77328 1.69332 6.29326 0.82665 11.8666C0.319983 15.0933 0.986679 18.1466 2.44001 20.6666L1.25333 25.0799C0.98666 26.0799 1.90663 26.9866 2.8933 26.7066L7.23998 25.5066C9.21331 26.6666 11.52 27.3333 13.9866 27.3333C21.5066 27.3333 27.7466 20.7066 27.3066 13.2133ZM20.5067 18.9599C20.3867 19.1999 20.24 19.4266 20.0533 19.6399C19.72 19.9999 19.3599 20.2666 18.9599 20.4266C18.5599 20.5999 18.12 20.6799 17.6533 20.6799C16.9733 20.6799 16.24 20.5199 15.48 20.1866C14.7066 19.8533 13.9467 19.4133 13.1867 18.8666C12.4133 18.3066 11.6933 17.6799 11 16.9999C10.3067 16.3066 9.69329 15.5732 9.13329 14.8132C8.58662 14.0532 8.14665 13.2933 7.82665 12.5333C7.50665 11.7733 7.34667 11.0399 7.34667 10.3466C7.34667 9.89328 7.42666 9.45327 7.58666 9.05327C7.74666 8.63994 8.00001 8.26661 8.36001 7.93328C8.78668 7.50661 9.25332 7.30661 9.74665 7.30661C9.93332 7.30661 10.1199 7.34661 10.2933 7.42661C10.4666 7.50661 10.6267 7.6266 10.7467 7.79994L12.2933 9.98658C12.4133 10.1599 12.5066 10.3066 12.56 10.4533C12.6266 10.5999 12.6533 10.7333 12.6533 10.8666C12.6533 11.0266 12.6 11.1866 12.5067 11.3466C12.4133 11.5066 12.2933 11.6666 12.1333 11.8266L11.6266 12.3599C11.5466 12.4399 11.52 12.5199 11.52 12.6266C11.52 12.6799 11.5333 12.7333 11.5466 12.7866C11.5733 12.8399 11.5867 12.8799 11.6 12.9199C11.72 13.1466 11.9333 13.4266 12.2266 13.7732C12.5333 14.1199 12.8534 14.4799 13.2 14.8266C13.56 15.1866 13.9067 15.5066 14.2667 15.8132C14.6133 16.1066 14.9066 16.3066 15.1333 16.4266C15.1733 16.4399 15.2133 16.4666 15.2533 16.4799C15.3067 16.5066 15.36 16.5066 15.4267 16.5066C15.5467 16.5066 15.6267 16.4666 15.7067 16.3866L16.2133 15.8799C16.3866 15.7066 16.5467 15.5866 16.6933 15.5066C16.8533 15.4133 17 15.3599 17.1733 15.3599C17.3067 15.3599 17.44 15.3866 17.5867 15.4533C17.7333 15.5199 17.8933 15.5999 18.0533 15.7199L20.2667 17.2933C20.44 17.4133 20.56 17.5599 20.64 17.7199C20.7066 17.8933 20.7467 18.0533 20.7467 18.2399C20.6667 18.4666 20.6133 18.7199 20.5067 18.9599Z" fill="#5061E2"/>
</svg>
